G75*
%MOIN*%
%OFA0B0*%
%FSLAX25Y25*%
%IPPOS*%
%LPD*%
%AMOC8*
5,1,8,0,0,1.08239X$1,22.5*
%
%ADD10OC8,0.06000*%
%ADD11C,0.07400*%
%ADD12C,0.06343*%
%ADD13C,0.05131*%
%ADD14C,0.08400*%
%ADD15C,0.13398*%
%ADD16C,0.05950*%
%ADD17C,0.07887*%
D10*
X0126000Y0106000D03*
X0126000Y0136000D03*
X0166000Y0131000D03*
X0186000Y0126000D03*
X0186000Y0106000D03*
X0166000Y0101000D03*
X0216000Y0086000D03*
X0216000Y0066000D03*
X0216000Y0121000D03*
X0216000Y0131000D03*
D11*
X0146000Y0136000D03*
X0146000Y0096000D03*
D12*
X0178229Y0161000D02*
X0183771Y0161000D01*
X0183771Y0181000D02*
X0178229Y0181000D01*
X0178229Y0201000D02*
X0183771Y0201000D01*
X0218229Y0201000D02*
X0223771Y0201000D01*
X0223771Y0181000D02*
X0218229Y0181000D01*
X0218229Y0161000D02*
X0223771Y0161000D01*
D13*
X0201000Y0161000D03*
X0201000Y0201000D03*
D14*
X0106000Y0181000D03*
X0106000Y0171000D03*
X0106000Y0161000D03*
X0106000Y0151000D03*
X0106000Y0141000D03*
X0106000Y0131000D03*
X0106000Y0121000D03*
X0106000Y0111000D03*
X0106000Y0101000D03*
X0106000Y0091000D03*
X0106000Y0081000D03*
X0106000Y0071000D03*
X0106000Y0061000D03*
X0106000Y0051000D03*
X0106000Y0041000D03*
X0016000Y0041000D03*
X0016000Y0051000D03*
X0016000Y0061000D03*
X0016000Y0071000D03*
X0016000Y0081000D03*
X0016000Y0091000D03*
X0016000Y0101000D03*
X0016000Y0111000D03*
X0016000Y0121000D03*
X0016000Y0131000D03*
X0016000Y0141000D03*
X0016000Y0151000D03*
X0016000Y0161000D03*
X0016000Y0171000D03*
X0016000Y0181000D03*
D15*
X0021000Y0026000D03*
X0101000Y0026000D03*
X0101000Y0196000D03*
X0021000Y0196000D03*
D16*
X0131000Y0171000D03*
X0141000Y0171000D03*
X0151000Y0171000D03*
D17*
X0141000Y0197457D02*
X0141000Y0204543D01*
X0131000Y0204543D02*
X0131000Y0197457D01*
M02*
