%
M48
M72
T01C0.03150
T02C0.03200
T03C0.03543
T04C0.04331
T05C0.04400
T06C0.04724
T07C0.12598
%
T01
X16000Y41000
X16000Y51000
X16000Y61000
X16000Y71000
X16000Y81000
X16000Y91000
X16000Y101000
X16000Y111000
X16000Y121000
X16000Y131000
X16000Y141000
X16000Y151000
X16000Y161000
X16000Y171000
X16000Y181000
X106000Y181000
X106000Y171000
X106000Y161000
X106000Y151000
X106000Y141000
X106000Y131000
X106000Y121000
X106000Y111000
X106000Y101000
X106000Y91000
X106000Y81000
X106000Y71000
X106000Y61000
X106000Y51000
X106000Y41000
X131000Y171000
X141000Y171000
X151000Y171000
T02
X126000Y136000
X126000Y106000
X166000Y101000
X186000Y106000
X186000Y126000
X166000Y131000
X216000Y131000
X216000Y121000
X216000Y86000
X216000Y66000
T03
X221000Y161000
X221000Y181000
X221000Y201000
X181000Y201000
X181000Y181000
X181000Y161000
T04
X201000Y161000
X201000Y201000
T05
X146000Y136000
X146000Y96000
T06
X141000Y201000
X131000Y201000
T07
X21000Y26000
X101000Y26000
X101000Y196000
X21000Y196000
M30
