G75*
%MOIN*%
%OFA0B0*%
%FSLAX25Y25*%
%IPPOS*%
%LPD*%
%AMOC8*
5,1,8,0,0,1.08239X$1,22.5*
%
%ADD10C,0.00000*%
%ADD11OC8,0.05200*%
%ADD12C,0.06600*%
%ADD13C,0.05543*%
%ADD14C,0.07600*%
%ADD15C,0.04921*%
%ADD16C,0.05150*%
%ADD17C,0.07087*%
%ADD18C,0.00800*%
%ADD19C,0.00600*%
D10*
X0001000Y0001000D02*
X0001000Y0215961D01*
X0234701Y0215961D01*
X0234701Y0001000D01*
X0001000Y0001000D01*
X0014701Y0026000D02*
X0014703Y0026158D01*
X0014709Y0026316D01*
X0014719Y0026474D01*
X0014733Y0026632D01*
X0014751Y0026789D01*
X0014772Y0026946D01*
X0014798Y0027102D01*
X0014828Y0027258D01*
X0014861Y0027413D01*
X0014899Y0027566D01*
X0014940Y0027719D01*
X0014985Y0027871D01*
X0015034Y0028022D01*
X0015087Y0028171D01*
X0015143Y0028319D01*
X0015203Y0028465D01*
X0015267Y0028610D01*
X0015335Y0028753D01*
X0015406Y0028895D01*
X0015480Y0029035D01*
X0015558Y0029172D01*
X0015640Y0029308D01*
X0015724Y0029442D01*
X0015813Y0029573D01*
X0015904Y0029702D01*
X0015999Y0029829D01*
X0016096Y0029954D01*
X0016197Y0030076D01*
X0016301Y0030195D01*
X0016408Y0030312D01*
X0016518Y0030426D01*
X0016631Y0030537D01*
X0016746Y0030646D01*
X0016864Y0030751D01*
X0016985Y0030853D01*
X0017108Y0030953D01*
X0017234Y0031049D01*
X0017362Y0031142D01*
X0017492Y0031232D01*
X0017625Y0031318D01*
X0017760Y0031402D01*
X0017896Y0031481D01*
X0018035Y0031558D01*
X0018176Y0031630D01*
X0018318Y0031700D01*
X0018462Y0031765D01*
X0018608Y0031827D01*
X0018755Y0031885D01*
X0018904Y0031940D01*
X0019054Y0031991D01*
X0019205Y0032038D01*
X0019357Y0032081D01*
X0019510Y0032120D01*
X0019665Y0032156D01*
X0019820Y0032187D01*
X0019976Y0032215D01*
X0020132Y0032239D01*
X0020289Y0032259D01*
X0020447Y0032275D01*
X0020604Y0032287D01*
X0020763Y0032295D01*
X0020921Y0032299D01*
X0021079Y0032299D01*
X0021237Y0032295D01*
X0021396Y0032287D01*
X0021553Y0032275D01*
X0021711Y0032259D01*
X0021868Y0032239D01*
X0022024Y0032215D01*
X0022180Y0032187D01*
X0022335Y0032156D01*
X0022490Y0032120D01*
X0022643Y0032081D01*
X0022795Y0032038D01*
X0022946Y0031991D01*
X0023096Y0031940D01*
X0023245Y0031885D01*
X0023392Y0031827D01*
X0023538Y0031765D01*
X0023682Y0031700D01*
X0023824Y0031630D01*
X0023965Y0031558D01*
X0024104Y0031481D01*
X0024240Y0031402D01*
X0024375Y0031318D01*
X0024508Y0031232D01*
X0024638Y0031142D01*
X0024766Y0031049D01*
X0024892Y0030953D01*
X0025015Y0030853D01*
X0025136Y0030751D01*
X0025254Y0030646D01*
X0025369Y0030537D01*
X0025482Y0030426D01*
X0025592Y0030312D01*
X0025699Y0030195D01*
X0025803Y0030076D01*
X0025904Y0029954D01*
X0026001Y0029829D01*
X0026096Y0029702D01*
X0026187Y0029573D01*
X0026276Y0029442D01*
X0026360Y0029308D01*
X0026442Y0029172D01*
X0026520Y0029035D01*
X0026594Y0028895D01*
X0026665Y0028753D01*
X0026733Y0028610D01*
X0026797Y0028465D01*
X0026857Y0028319D01*
X0026913Y0028171D01*
X0026966Y0028022D01*
X0027015Y0027871D01*
X0027060Y0027719D01*
X0027101Y0027566D01*
X0027139Y0027413D01*
X0027172Y0027258D01*
X0027202Y0027102D01*
X0027228Y0026946D01*
X0027249Y0026789D01*
X0027267Y0026632D01*
X0027281Y0026474D01*
X0027291Y0026316D01*
X0027297Y0026158D01*
X0027299Y0026000D01*
X0027297Y0025842D01*
X0027291Y0025684D01*
X0027281Y0025526D01*
X0027267Y0025368D01*
X0027249Y0025211D01*
X0027228Y0025054D01*
X0027202Y0024898D01*
X0027172Y0024742D01*
X0027139Y0024587D01*
X0027101Y0024434D01*
X0027060Y0024281D01*
X0027015Y0024129D01*
X0026966Y0023978D01*
X0026913Y0023829D01*
X0026857Y0023681D01*
X0026797Y0023535D01*
X0026733Y0023390D01*
X0026665Y0023247D01*
X0026594Y0023105D01*
X0026520Y0022965D01*
X0026442Y0022828D01*
X0026360Y0022692D01*
X0026276Y0022558D01*
X0026187Y0022427D01*
X0026096Y0022298D01*
X0026001Y0022171D01*
X0025904Y0022046D01*
X0025803Y0021924D01*
X0025699Y0021805D01*
X0025592Y0021688D01*
X0025482Y0021574D01*
X0025369Y0021463D01*
X0025254Y0021354D01*
X0025136Y0021249D01*
X0025015Y0021147D01*
X0024892Y0021047D01*
X0024766Y0020951D01*
X0024638Y0020858D01*
X0024508Y0020768D01*
X0024375Y0020682D01*
X0024240Y0020598D01*
X0024104Y0020519D01*
X0023965Y0020442D01*
X0023824Y0020370D01*
X0023682Y0020300D01*
X0023538Y0020235D01*
X0023392Y0020173D01*
X0023245Y0020115D01*
X0023096Y0020060D01*
X0022946Y0020009D01*
X0022795Y0019962D01*
X0022643Y0019919D01*
X0022490Y0019880D01*
X0022335Y0019844D01*
X0022180Y0019813D01*
X0022024Y0019785D01*
X0021868Y0019761D01*
X0021711Y0019741D01*
X0021553Y0019725D01*
X0021396Y0019713D01*
X0021237Y0019705D01*
X0021079Y0019701D01*
X0020921Y0019701D01*
X0020763Y0019705D01*
X0020604Y0019713D01*
X0020447Y0019725D01*
X0020289Y0019741D01*
X0020132Y0019761D01*
X0019976Y0019785D01*
X0019820Y0019813D01*
X0019665Y0019844D01*
X0019510Y0019880D01*
X0019357Y0019919D01*
X0019205Y0019962D01*
X0019054Y0020009D01*
X0018904Y0020060D01*
X0018755Y0020115D01*
X0018608Y0020173D01*
X0018462Y0020235D01*
X0018318Y0020300D01*
X0018176Y0020370D01*
X0018035Y0020442D01*
X0017896Y0020519D01*
X0017760Y0020598D01*
X0017625Y0020682D01*
X0017492Y0020768D01*
X0017362Y0020858D01*
X0017234Y0020951D01*
X0017108Y0021047D01*
X0016985Y0021147D01*
X0016864Y0021249D01*
X0016746Y0021354D01*
X0016631Y0021463D01*
X0016518Y0021574D01*
X0016408Y0021688D01*
X0016301Y0021805D01*
X0016197Y0021924D01*
X0016096Y0022046D01*
X0015999Y0022171D01*
X0015904Y0022298D01*
X0015813Y0022427D01*
X0015724Y0022558D01*
X0015640Y0022692D01*
X0015558Y0022828D01*
X0015480Y0022965D01*
X0015406Y0023105D01*
X0015335Y0023247D01*
X0015267Y0023390D01*
X0015203Y0023535D01*
X0015143Y0023681D01*
X0015087Y0023829D01*
X0015034Y0023978D01*
X0014985Y0024129D01*
X0014940Y0024281D01*
X0014899Y0024434D01*
X0014861Y0024587D01*
X0014828Y0024742D01*
X0014798Y0024898D01*
X0014772Y0025054D01*
X0014751Y0025211D01*
X0014733Y0025368D01*
X0014719Y0025526D01*
X0014709Y0025684D01*
X0014703Y0025842D01*
X0014701Y0026000D01*
X0094701Y0026000D02*
X0094703Y0026158D01*
X0094709Y0026316D01*
X0094719Y0026474D01*
X0094733Y0026632D01*
X0094751Y0026789D01*
X0094772Y0026946D01*
X0094798Y0027102D01*
X0094828Y0027258D01*
X0094861Y0027413D01*
X0094899Y0027566D01*
X0094940Y0027719D01*
X0094985Y0027871D01*
X0095034Y0028022D01*
X0095087Y0028171D01*
X0095143Y0028319D01*
X0095203Y0028465D01*
X0095267Y0028610D01*
X0095335Y0028753D01*
X0095406Y0028895D01*
X0095480Y0029035D01*
X0095558Y0029172D01*
X0095640Y0029308D01*
X0095724Y0029442D01*
X0095813Y0029573D01*
X0095904Y0029702D01*
X0095999Y0029829D01*
X0096096Y0029954D01*
X0096197Y0030076D01*
X0096301Y0030195D01*
X0096408Y0030312D01*
X0096518Y0030426D01*
X0096631Y0030537D01*
X0096746Y0030646D01*
X0096864Y0030751D01*
X0096985Y0030853D01*
X0097108Y0030953D01*
X0097234Y0031049D01*
X0097362Y0031142D01*
X0097492Y0031232D01*
X0097625Y0031318D01*
X0097760Y0031402D01*
X0097896Y0031481D01*
X0098035Y0031558D01*
X0098176Y0031630D01*
X0098318Y0031700D01*
X0098462Y0031765D01*
X0098608Y0031827D01*
X0098755Y0031885D01*
X0098904Y0031940D01*
X0099054Y0031991D01*
X0099205Y0032038D01*
X0099357Y0032081D01*
X0099510Y0032120D01*
X0099665Y0032156D01*
X0099820Y0032187D01*
X0099976Y0032215D01*
X0100132Y0032239D01*
X0100289Y0032259D01*
X0100447Y0032275D01*
X0100604Y0032287D01*
X0100763Y0032295D01*
X0100921Y0032299D01*
X0101079Y0032299D01*
X0101237Y0032295D01*
X0101396Y0032287D01*
X0101553Y0032275D01*
X0101711Y0032259D01*
X0101868Y0032239D01*
X0102024Y0032215D01*
X0102180Y0032187D01*
X0102335Y0032156D01*
X0102490Y0032120D01*
X0102643Y0032081D01*
X0102795Y0032038D01*
X0102946Y0031991D01*
X0103096Y0031940D01*
X0103245Y0031885D01*
X0103392Y0031827D01*
X0103538Y0031765D01*
X0103682Y0031700D01*
X0103824Y0031630D01*
X0103965Y0031558D01*
X0104104Y0031481D01*
X0104240Y0031402D01*
X0104375Y0031318D01*
X0104508Y0031232D01*
X0104638Y0031142D01*
X0104766Y0031049D01*
X0104892Y0030953D01*
X0105015Y0030853D01*
X0105136Y0030751D01*
X0105254Y0030646D01*
X0105369Y0030537D01*
X0105482Y0030426D01*
X0105592Y0030312D01*
X0105699Y0030195D01*
X0105803Y0030076D01*
X0105904Y0029954D01*
X0106001Y0029829D01*
X0106096Y0029702D01*
X0106187Y0029573D01*
X0106276Y0029442D01*
X0106360Y0029308D01*
X0106442Y0029172D01*
X0106520Y0029035D01*
X0106594Y0028895D01*
X0106665Y0028753D01*
X0106733Y0028610D01*
X0106797Y0028465D01*
X0106857Y0028319D01*
X0106913Y0028171D01*
X0106966Y0028022D01*
X0107015Y0027871D01*
X0107060Y0027719D01*
X0107101Y0027566D01*
X0107139Y0027413D01*
X0107172Y0027258D01*
X0107202Y0027102D01*
X0107228Y0026946D01*
X0107249Y0026789D01*
X0107267Y0026632D01*
X0107281Y0026474D01*
X0107291Y0026316D01*
X0107297Y0026158D01*
X0107299Y0026000D01*
X0107297Y0025842D01*
X0107291Y0025684D01*
X0107281Y0025526D01*
X0107267Y0025368D01*
X0107249Y0025211D01*
X0107228Y0025054D01*
X0107202Y0024898D01*
X0107172Y0024742D01*
X0107139Y0024587D01*
X0107101Y0024434D01*
X0107060Y0024281D01*
X0107015Y0024129D01*
X0106966Y0023978D01*
X0106913Y0023829D01*
X0106857Y0023681D01*
X0106797Y0023535D01*
X0106733Y0023390D01*
X0106665Y0023247D01*
X0106594Y0023105D01*
X0106520Y0022965D01*
X0106442Y0022828D01*
X0106360Y0022692D01*
X0106276Y0022558D01*
X0106187Y0022427D01*
X0106096Y0022298D01*
X0106001Y0022171D01*
X0105904Y0022046D01*
X0105803Y0021924D01*
X0105699Y0021805D01*
X0105592Y0021688D01*
X0105482Y0021574D01*
X0105369Y0021463D01*
X0105254Y0021354D01*
X0105136Y0021249D01*
X0105015Y0021147D01*
X0104892Y0021047D01*
X0104766Y0020951D01*
X0104638Y0020858D01*
X0104508Y0020768D01*
X0104375Y0020682D01*
X0104240Y0020598D01*
X0104104Y0020519D01*
X0103965Y0020442D01*
X0103824Y0020370D01*
X0103682Y0020300D01*
X0103538Y0020235D01*
X0103392Y0020173D01*
X0103245Y0020115D01*
X0103096Y0020060D01*
X0102946Y0020009D01*
X0102795Y0019962D01*
X0102643Y0019919D01*
X0102490Y0019880D01*
X0102335Y0019844D01*
X0102180Y0019813D01*
X0102024Y0019785D01*
X0101868Y0019761D01*
X0101711Y0019741D01*
X0101553Y0019725D01*
X0101396Y0019713D01*
X0101237Y0019705D01*
X0101079Y0019701D01*
X0100921Y0019701D01*
X0100763Y0019705D01*
X0100604Y0019713D01*
X0100447Y0019725D01*
X0100289Y0019741D01*
X0100132Y0019761D01*
X0099976Y0019785D01*
X0099820Y0019813D01*
X0099665Y0019844D01*
X0099510Y0019880D01*
X0099357Y0019919D01*
X0099205Y0019962D01*
X0099054Y0020009D01*
X0098904Y0020060D01*
X0098755Y0020115D01*
X0098608Y0020173D01*
X0098462Y0020235D01*
X0098318Y0020300D01*
X0098176Y0020370D01*
X0098035Y0020442D01*
X0097896Y0020519D01*
X0097760Y0020598D01*
X0097625Y0020682D01*
X0097492Y0020768D01*
X0097362Y0020858D01*
X0097234Y0020951D01*
X0097108Y0021047D01*
X0096985Y0021147D01*
X0096864Y0021249D01*
X0096746Y0021354D01*
X0096631Y0021463D01*
X0096518Y0021574D01*
X0096408Y0021688D01*
X0096301Y0021805D01*
X0096197Y0021924D01*
X0096096Y0022046D01*
X0095999Y0022171D01*
X0095904Y0022298D01*
X0095813Y0022427D01*
X0095724Y0022558D01*
X0095640Y0022692D01*
X0095558Y0022828D01*
X0095480Y0022965D01*
X0095406Y0023105D01*
X0095335Y0023247D01*
X0095267Y0023390D01*
X0095203Y0023535D01*
X0095143Y0023681D01*
X0095087Y0023829D01*
X0095034Y0023978D01*
X0094985Y0024129D01*
X0094940Y0024281D01*
X0094899Y0024434D01*
X0094861Y0024587D01*
X0094828Y0024742D01*
X0094798Y0024898D01*
X0094772Y0025054D01*
X0094751Y0025211D01*
X0094733Y0025368D01*
X0094719Y0025526D01*
X0094709Y0025684D01*
X0094703Y0025842D01*
X0094701Y0026000D01*
X0198835Y0161000D02*
X0198837Y0161093D01*
X0198843Y0161185D01*
X0198853Y0161277D01*
X0198867Y0161368D01*
X0198884Y0161459D01*
X0198906Y0161549D01*
X0198931Y0161638D01*
X0198960Y0161726D01*
X0198993Y0161812D01*
X0199030Y0161897D01*
X0199070Y0161981D01*
X0199114Y0162062D01*
X0199161Y0162142D01*
X0199211Y0162220D01*
X0199265Y0162295D01*
X0199322Y0162368D01*
X0199382Y0162438D01*
X0199445Y0162506D01*
X0199511Y0162571D01*
X0199579Y0162633D01*
X0199650Y0162693D01*
X0199724Y0162749D01*
X0199800Y0162802D01*
X0199878Y0162851D01*
X0199958Y0162898D01*
X0200040Y0162940D01*
X0200124Y0162980D01*
X0200209Y0163015D01*
X0200296Y0163047D01*
X0200384Y0163076D01*
X0200473Y0163100D01*
X0200563Y0163121D01*
X0200654Y0163137D01*
X0200746Y0163150D01*
X0200838Y0163159D01*
X0200931Y0163164D01*
X0201023Y0163165D01*
X0201116Y0163162D01*
X0201208Y0163155D01*
X0201300Y0163144D01*
X0201391Y0163129D01*
X0201482Y0163111D01*
X0201572Y0163088D01*
X0201660Y0163062D01*
X0201748Y0163032D01*
X0201834Y0162998D01*
X0201918Y0162961D01*
X0202001Y0162919D01*
X0202082Y0162875D01*
X0202162Y0162827D01*
X0202239Y0162776D01*
X0202313Y0162721D01*
X0202386Y0162663D01*
X0202456Y0162603D01*
X0202523Y0162539D01*
X0202587Y0162473D01*
X0202649Y0162403D01*
X0202707Y0162332D01*
X0202762Y0162258D01*
X0202814Y0162181D01*
X0202863Y0162102D01*
X0202909Y0162022D01*
X0202951Y0161939D01*
X0202989Y0161855D01*
X0203024Y0161769D01*
X0203055Y0161682D01*
X0203082Y0161594D01*
X0203105Y0161504D01*
X0203125Y0161414D01*
X0203141Y0161323D01*
X0203153Y0161231D01*
X0203161Y0161139D01*
X0203165Y0161046D01*
X0203165Y0160954D01*
X0203161Y0160861D01*
X0203153Y0160769D01*
X0203141Y0160677D01*
X0203125Y0160586D01*
X0203105Y0160496D01*
X0203082Y0160406D01*
X0203055Y0160318D01*
X0203024Y0160231D01*
X0202989Y0160145D01*
X0202951Y0160061D01*
X0202909Y0159978D01*
X0202863Y0159898D01*
X0202814Y0159819D01*
X0202762Y0159742D01*
X0202707Y0159668D01*
X0202649Y0159597D01*
X0202587Y0159527D01*
X0202523Y0159461D01*
X0202456Y0159397D01*
X0202386Y0159337D01*
X0202313Y0159279D01*
X0202239Y0159224D01*
X0202162Y0159173D01*
X0202083Y0159125D01*
X0202001Y0159081D01*
X0201918Y0159039D01*
X0201834Y0159002D01*
X0201748Y0158968D01*
X0201660Y0158938D01*
X0201572Y0158912D01*
X0201482Y0158889D01*
X0201391Y0158871D01*
X0201300Y0158856D01*
X0201208Y0158845D01*
X0201116Y0158838D01*
X0201023Y0158835D01*
X0200931Y0158836D01*
X0200838Y0158841D01*
X0200746Y0158850D01*
X0200654Y0158863D01*
X0200563Y0158879D01*
X0200473Y0158900D01*
X0200384Y0158924D01*
X0200296Y0158953D01*
X0200209Y0158985D01*
X0200124Y0159020D01*
X0200040Y0159060D01*
X0199958Y0159102D01*
X0199878Y0159149D01*
X0199800Y0159198D01*
X0199724Y0159251D01*
X0199650Y0159307D01*
X0199579Y0159367D01*
X0199511Y0159429D01*
X0199445Y0159494D01*
X0199382Y0159562D01*
X0199322Y0159632D01*
X0199265Y0159705D01*
X0199211Y0159780D01*
X0199161Y0159858D01*
X0199114Y0159938D01*
X0199070Y0160019D01*
X0199030Y0160103D01*
X0198993Y0160188D01*
X0198960Y0160274D01*
X0198931Y0160362D01*
X0198906Y0160451D01*
X0198884Y0160541D01*
X0198867Y0160632D01*
X0198853Y0160723D01*
X0198843Y0160815D01*
X0198837Y0160907D01*
X0198835Y0161000D01*
X0198835Y0201000D02*
X0198837Y0201093D01*
X0198843Y0201185D01*
X0198853Y0201277D01*
X0198867Y0201368D01*
X0198884Y0201459D01*
X0198906Y0201549D01*
X0198931Y0201638D01*
X0198960Y0201726D01*
X0198993Y0201812D01*
X0199030Y0201897D01*
X0199070Y0201981D01*
X0199114Y0202062D01*
X0199161Y0202142D01*
X0199211Y0202220D01*
X0199265Y0202295D01*
X0199322Y0202368D01*
X0199382Y0202438D01*
X0199445Y0202506D01*
X0199511Y0202571D01*
X0199579Y0202633D01*
X0199650Y0202693D01*
X0199724Y0202749D01*
X0199800Y0202802D01*
X0199878Y0202851D01*
X0199958Y0202898D01*
X0200040Y0202940D01*
X0200124Y0202980D01*
X0200209Y0203015D01*
X0200296Y0203047D01*
X0200384Y0203076D01*
X0200473Y0203100D01*
X0200563Y0203121D01*
X0200654Y0203137D01*
X0200746Y0203150D01*
X0200838Y0203159D01*
X0200931Y0203164D01*
X0201023Y0203165D01*
X0201116Y0203162D01*
X0201208Y0203155D01*
X0201300Y0203144D01*
X0201391Y0203129D01*
X0201482Y0203111D01*
X0201572Y0203088D01*
X0201660Y0203062D01*
X0201748Y0203032D01*
X0201834Y0202998D01*
X0201918Y0202961D01*
X0202001Y0202919D01*
X0202082Y0202875D01*
X0202162Y0202827D01*
X0202239Y0202776D01*
X0202313Y0202721D01*
X0202386Y0202663D01*
X0202456Y0202603D01*
X0202523Y0202539D01*
X0202587Y0202473D01*
X0202649Y0202403D01*
X0202707Y0202332D01*
X0202762Y0202258D01*
X0202814Y0202181D01*
X0202863Y0202102D01*
X0202909Y0202022D01*
X0202951Y0201939D01*
X0202989Y0201855D01*
X0203024Y0201769D01*
X0203055Y0201682D01*
X0203082Y0201594D01*
X0203105Y0201504D01*
X0203125Y0201414D01*
X0203141Y0201323D01*
X0203153Y0201231D01*
X0203161Y0201139D01*
X0203165Y0201046D01*
X0203165Y0200954D01*
X0203161Y0200861D01*
X0203153Y0200769D01*
X0203141Y0200677D01*
X0203125Y0200586D01*
X0203105Y0200496D01*
X0203082Y0200406D01*
X0203055Y0200318D01*
X0203024Y0200231D01*
X0202989Y0200145D01*
X0202951Y0200061D01*
X0202909Y0199978D01*
X0202863Y0199898D01*
X0202814Y0199819D01*
X0202762Y0199742D01*
X0202707Y0199668D01*
X0202649Y0199597D01*
X0202587Y0199527D01*
X0202523Y0199461D01*
X0202456Y0199397D01*
X0202386Y0199337D01*
X0202313Y0199279D01*
X0202239Y0199224D01*
X0202162Y0199173D01*
X0202083Y0199125D01*
X0202001Y0199081D01*
X0201918Y0199039D01*
X0201834Y0199002D01*
X0201748Y0198968D01*
X0201660Y0198938D01*
X0201572Y0198912D01*
X0201482Y0198889D01*
X0201391Y0198871D01*
X0201300Y0198856D01*
X0201208Y0198845D01*
X0201116Y0198838D01*
X0201023Y0198835D01*
X0200931Y0198836D01*
X0200838Y0198841D01*
X0200746Y0198850D01*
X0200654Y0198863D01*
X0200563Y0198879D01*
X0200473Y0198900D01*
X0200384Y0198924D01*
X0200296Y0198953D01*
X0200209Y0198985D01*
X0200124Y0199020D01*
X0200040Y0199060D01*
X0199958Y0199102D01*
X0199878Y0199149D01*
X0199800Y0199198D01*
X0199724Y0199251D01*
X0199650Y0199307D01*
X0199579Y0199367D01*
X0199511Y0199429D01*
X0199445Y0199494D01*
X0199382Y0199562D01*
X0199322Y0199632D01*
X0199265Y0199705D01*
X0199211Y0199780D01*
X0199161Y0199858D01*
X0199114Y0199938D01*
X0199070Y0200019D01*
X0199030Y0200103D01*
X0198993Y0200188D01*
X0198960Y0200274D01*
X0198931Y0200362D01*
X0198906Y0200451D01*
X0198884Y0200541D01*
X0198867Y0200632D01*
X0198853Y0200723D01*
X0198843Y0200815D01*
X0198837Y0200907D01*
X0198835Y0201000D01*
X0094701Y0196000D02*
X0094703Y0196158D01*
X0094709Y0196316D01*
X0094719Y0196474D01*
X0094733Y0196632D01*
X0094751Y0196789D01*
X0094772Y0196946D01*
X0094798Y0197102D01*
X0094828Y0197258D01*
X0094861Y0197413D01*
X0094899Y0197566D01*
X0094940Y0197719D01*
X0094985Y0197871D01*
X0095034Y0198022D01*
X0095087Y0198171D01*
X0095143Y0198319D01*
X0095203Y0198465D01*
X0095267Y0198610D01*
X0095335Y0198753D01*
X0095406Y0198895D01*
X0095480Y0199035D01*
X0095558Y0199172D01*
X0095640Y0199308D01*
X0095724Y0199442D01*
X0095813Y0199573D01*
X0095904Y0199702D01*
X0095999Y0199829D01*
X0096096Y0199954D01*
X0096197Y0200076D01*
X0096301Y0200195D01*
X0096408Y0200312D01*
X0096518Y0200426D01*
X0096631Y0200537D01*
X0096746Y0200646D01*
X0096864Y0200751D01*
X0096985Y0200853D01*
X0097108Y0200953D01*
X0097234Y0201049D01*
X0097362Y0201142D01*
X0097492Y0201232D01*
X0097625Y0201318D01*
X0097760Y0201402D01*
X0097896Y0201481D01*
X0098035Y0201558D01*
X0098176Y0201630D01*
X0098318Y0201700D01*
X0098462Y0201765D01*
X0098608Y0201827D01*
X0098755Y0201885D01*
X0098904Y0201940D01*
X0099054Y0201991D01*
X0099205Y0202038D01*
X0099357Y0202081D01*
X0099510Y0202120D01*
X0099665Y0202156D01*
X0099820Y0202187D01*
X0099976Y0202215D01*
X0100132Y0202239D01*
X0100289Y0202259D01*
X0100447Y0202275D01*
X0100604Y0202287D01*
X0100763Y0202295D01*
X0100921Y0202299D01*
X0101079Y0202299D01*
X0101237Y0202295D01*
X0101396Y0202287D01*
X0101553Y0202275D01*
X0101711Y0202259D01*
X0101868Y0202239D01*
X0102024Y0202215D01*
X0102180Y0202187D01*
X0102335Y0202156D01*
X0102490Y0202120D01*
X0102643Y0202081D01*
X0102795Y0202038D01*
X0102946Y0201991D01*
X0103096Y0201940D01*
X0103245Y0201885D01*
X0103392Y0201827D01*
X0103538Y0201765D01*
X0103682Y0201700D01*
X0103824Y0201630D01*
X0103965Y0201558D01*
X0104104Y0201481D01*
X0104240Y0201402D01*
X0104375Y0201318D01*
X0104508Y0201232D01*
X0104638Y0201142D01*
X0104766Y0201049D01*
X0104892Y0200953D01*
X0105015Y0200853D01*
X0105136Y0200751D01*
X0105254Y0200646D01*
X0105369Y0200537D01*
X0105482Y0200426D01*
X0105592Y0200312D01*
X0105699Y0200195D01*
X0105803Y0200076D01*
X0105904Y0199954D01*
X0106001Y0199829D01*
X0106096Y0199702D01*
X0106187Y0199573D01*
X0106276Y0199442D01*
X0106360Y0199308D01*
X0106442Y0199172D01*
X0106520Y0199035D01*
X0106594Y0198895D01*
X0106665Y0198753D01*
X0106733Y0198610D01*
X0106797Y0198465D01*
X0106857Y0198319D01*
X0106913Y0198171D01*
X0106966Y0198022D01*
X0107015Y0197871D01*
X0107060Y0197719D01*
X0107101Y0197566D01*
X0107139Y0197413D01*
X0107172Y0197258D01*
X0107202Y0197102D01*
X0107228Y0196946D01*
X0107249Y0196789D01*
X0107267Y0196632D01*
X0107281Y0196474D01*
X0107291Y0196316D01*
X0107297Y0196158D01*
X0107299Y0196000D01*
X0107297Y0195842D01*
X0107291Y0195684D01*
X0107281Y0195526D01*
X0107267Y0195368D01*
X0107249Y0195211D01*
X0107228Y0195054D01*
X0107202Y0194898D01*
X0107172Y0194742D01*
X0107139Y0194587D01*
X0107101Y0194434D01*
X0107060Y0194281D01*
X0107015Y0194129D01*
X0106966Y0193978D01*
X0106913Y0193829D01*
X0106857Y0193681D01*
X0106797Y0193535D01*
X0106733Y0193390D01*
X0106665Y0193247D01*
X0106594Y0193105D01*
X0106520Y0192965D01*
X0106442Y0192828D01*
X0106360Y0192692D01*
X0106276Y0192558D01*
X0106187Y0192427D01*
X0106096Y0192298D01*
X0106001Y0192171D01*
X0105904Y0192046D01*
X0105803Y0191924D01*
X0105699Y0191805D01*
X0105592Y0191688D01*
X0105482Y0191574D01*
X0105369Y0191463D01*
X0105254Y0191354D01*
X0105136Y0191249D01*
X0105015Y0191147D01*
X0104892Y0191047D01*
X0104766Y0190951D01*
X0104638Y0190858D01*
X0104508Y0190768D01*
X0104375Y0190682D01*
X0104240Y0190598D01*
X0104104Y0190519D01*
X0103965Y0190442D01*
X0103824Y0190370D01*
X0103682Y0190300D01*
X0103538Y0190235D01*
X0103392Y0190173D01*
X0103245Y0190115D01*
X0103096Y0190060D01*
X0102946Y0190009D01*
X0102795Y0189962D01*
X0102643Y0189919D01*
X0102490Y0189880D01*
X0102335Y0189844D01*
X0102180Y0189813D01*
X0102024Y0189785D01*
X0101868Y0189761D01*
X0101711Y0189741D01*
X0101553Y0189725D01*
X0101396Y0189713D01*
X0101237Y0189705D01*
X0101079Y0189701D01*
X0100921Y0189701D01*
X0100763Y0189705D01*
X0100604Y0189713D01*
X0100447Y0189725D01*
X0100289Y0189741D01*
X0100132Y0189761D01*
X0099976Y0189785D01*
X0099820Y0189813D01*
X0099665Y0189844D01*
X0099510Y0189880D01*
X0099357Y0189919D01*
X0099205Y0189962D01*
X0099054Y0190009D01*
X0098904Y0190060D01*
X0098755Y0190115D01*
X0098608Y0190173D01*
X0098462Y0190235D01*
X0098318Y0190300D01*
X0098176Y0190370D01*
X0098035Y0190442D01*
X0097896Y0190519D01*
X0097760Y0190598D01*
X0097625Y0190682D01*
X0097492Y0190768D01*
X0097362Y0190858D01*
X0097234Y0190951D01*
X0097108Y0191047D01*
X0096985Y0191147D01*
X0096864Y0191249D01*
X0096746Y0191354D01*
X0096631Y0191463D01*
X0096518Y0191574D01*
X0096408Y0191688D01*
X0096301Y0191805D01*
X0096197Y0191924D01*
X0096096Y0192046D01*
X0095999Y0192171D01*
X0095904Y0192298D01*
X0095813Y0192427D01*
X0095724Y0192558D01*
X0095640Y0192692D01*
X0095558Y0192828D01*
X0095480Y0192965D01*
X0095406Y0193105D01*
X0095335Y0193247D01*
X0095267Y0193390D01*
X0095203Y0193535D01*
X0095143Y0193681D01*
X0095087Y0193829D01*
X0095034Y0193978D01*
X0094985Y0194129D01*
X0094940Y0194281D01*
X0094899Y0194434D01*
X0094861Y0194587D01*
X0094828Y0194742D01*
X0094798Y0194898D01*
X0094772Y0195054D01*
X0094751Y0195211D01*
X0094733Y0195368D01*
X0094719Y0195526D01*
X0094709Y0195684D01*
X0094703Y0195842D01*
X0094701Y0196000D01*
X0014701Y0196000D02*
X0014703Y0196158D01*
X0014709Y0196316D01*
X0014719Y0196474D01*
X0014733Y0196632D01*
X0014751Y0196789D01*
X0014772Y0196946D01*
X0014798Y0197102D01*
X0014828Y0197258D01*
X0014861Y0197413D01*
X0014899Y0197566D01*
X0014940Y0197719D01*
X0014985Y0197871D01*
X0015034Y0198022D01*
X0015087Y0198171D01*
X0015143Y0198319D01*
X0015203Y0198465D01*
X0015267Y0198610D01*
X0015335Y0198753D01*
X0015406Y0198895D01*
X0015480Y0199035D01*
X0015558Y0199172D01*
X0015640Y0199308D01*
X0015724Y0199442D01*
X0015813Y0199573D01*
X0015904Y0199702D01*
X0015999Y0199829D01*
X0016096Y0199954D01*
X0016197Y0200076D01*
X0016301Y0200195D01*
X0016408Y0200312D01*
X0016518Y0200426D01*
X0016631Y0200537D01*
X0016746Y0200646D01*
X0016864Y0200751D01*
X0016985Y0200853D01*
X0017108Y0200953D01*
X0017234Y0201049D01*
X0017362Y0201142D01*
X0017492Y0201232D01*
X0017625Y0201318D01*
X0017760Y0201402D01*
X0017896Y0201481D01*
X0018035Y0201558D01*
X0018176Y0201630D01*
X0018318Y0201700D01*
X0018462Y0201765D01*
X0018608Y0201827D01*
X0018755Y0201885D01*
X0018904Y0201940D01*
X0019054Y0201991D01*
X0019205Y0202038D01*
X0019357Y0202081D01*
X0019510Y0202120D01*
X0019665Y0202156D01*
X0019820Y0202187D01*
X0019976Y0202215D01*
X0020132Y0202239D01*
X0020289Y0202259D01*
X0020447Y0202275D01*
X0020604Y0202287D01*
X0020763Y0202295D01*
X0020921Y0202299D01*
X0021079Y0202299D01*
X0021237Y0202295D01*
X0021396Y0202287D01*
X0021553Y0202275D01*
X0021711Y0202259D01*
X0021868Y0202239D01*
X0022024Y0202215D01*
X0022180Y0202187D01*
X0022335Y0202156D01*
X0022490Y0202120D01*
X0022643Y0202081D01*
X0022795Y0202038D01*
X0022946Y0201991D01*
X0023096Y0201940D01*
X0023245Y0201885D01*
X0023392Y0201827D01*
X0023538Y0201765D01*
X0023682Y0201700D01*
X0023824Y0201630D01*
X0023965Y0201558D01*
X0024104Y0201481D01*
X0024240Y0201402D01*
X0024375Y0201318D01*
X0024508Y0201232D01*
X0024638Y0201142D01*
X0024766Y0201049D01*
X0024892Y0200953D01*
X0025015Y0200853D01*
X0025136Y0200751D01*
X0025254Y0200646D01*
X0025369Y0200537D01*
X0025482Y0200426D01*
X0025592Y0200312D01*
X0025699Y0200195D01*
X0025803Y0200076D01*
X0025904Y0199954D01*
X0026001Y0199829D01*
X0026096Y0199702D01*
X0026187Y0199573D01*
X0026276Y0199442D01*
X0026360Y0199308D01*
X0026442Y0199172D01*
X0026520Y0199035D01*
X0026594Y0198895D01*
X0026665Y0198753D01*
X0026733Y0198610D01*
X0026797Y0198465D01*
X0026857Y0198319D01*
X0026913Y0198171D01*
X0026966Y0198022D01*
X0027015Y0197871D01*
X0027060Y0197719D01*
X0027101Y0197566D01*
X0027139Y0197413D01*
X0027172Y0197258D01*
X0027202Y0197102D01*
X0027228Y0196946D01*
X0027249Y0196789D01*
X0027267Y0196632D01*
X0027281Y0196474D01*
X0027291Y0196316D01*
X0027297Y0196158D01*
X0027299Y0196000D01*
X0027297Y0195842D01*
X0027291Y0195684D01*
X0027281Y0195526D01*
X0027267Y0195368D01*
X0027249Y0195211D01*
X0027228Y0195054D01*
X0027202Y0194898D01*
X0027172Y0194742D01*
X0027139Y0194587D01*
X0027101Y0194434D01*
X0027060Y0194281D01*
X0027015Y0194129D01*
X0026966Y0193978D01*
X0026913Y0193829D01*
X0026857Y0193681D01*
X0026797Y0193535D01*
X0026733Y0193390D01*
X0026665Y0193247D01*
X0026594Y0193105D01*
X0026520Y0192965D01*
X0026442Y0192828D01*
X0026360Y0192692D01*
X0026276Y0192558D01*
X0026187Y0192427D01*
X0026096Y0192298D01*
X0026001Y0192171D01*
X0025904Y0192046D01*
X0025803Y0191924D01*
X0025699Y0191805D01*
X0025592Y0191688D01*
X0025482Y0191574D01*
X0025369Y0191463D01*
X0025254Y0191354D01*
X0025136Y0191249D01*
X0025015Y0191147D01*
X0024892Y0191047D01*
X0024766Y0190951D01*
X0024638Y0190858D01*
X0024508Y0190768D01*
X0024375Y0190682D01*
X0024240Y0190598D01*
X0024104Y0190519D01*
X0023965Y0190442D01*
X0023824Y0190370D01*
X0023682Y0190300D01*
X0023538Y0190235D01*
X0023392Y0190173D01*
X0023245Y0190115D01*
X0023096Y0190060D01*
X0022946Y0190009D01*
X0022795Y0189962D01*
X0022643Y0189919D01*
X0022490Y0189880D01*
X0022335Y0189844D01*
X0022180Y0189813D01*
X0022024Y0189785D01*
X0021868Y0189761D01*
X0021711Y0189741D01*
X0021553Y0189725D01*
X0021396Y0189713D01*
X0021237Y0189705D01*
X0021079Y0189701D01*
X0020921Y0189701D01*
X0020763Y0189705D01*
X0020604Y0189713D01*
X0020447Y0189725D01*
X0020289Y0189741D01*
X0020132Y0189761D01*
X0019976Y0189785D01*
X0019820Y0189813D01*
X0019665Y0189844D01*
X0019510Y0189880D01*
X0019357Y0189919D01*
X0019205Y0189962D01*
X0019054Y0190009D01*
X0018904Y0190060D01*
X0018755Y0190115D01*
X0018608Y0190173D01*
X0018462Y0190235D01*
X0018318Y0190300D01*
X0018176Y0190370D01*
X0018035Y0190442D01*
X0017896Y0190519D01*
X0017760Y0190598D01*
X0017625Y0190682D01*
X0017492Y0190768D01*
X0017362Y0190858D01*
X0017234Y0190951D01*
X0017108Y0191047D01*
X0016985Y0191147D01*
X0016864Y0191249D01*
X0016746Y0191354D01*
X0016631Y0191463D01*
X0016518Y0191574D01*
X0016408Y0191688D01*
X0016301Y0191805D01*
X0016197Y0191924D01*
X0016096Y0192046D01*
X0015999Y0192171D01*
X0015904Y0192298D01*
X0015813Y0192427D01*
X0015724Y0192558D01*
X0015640Y0192692D01*
X0015558Y0192828D01*
X0015480Y0192965D01*
X0015406Y0193105D01*
X0015335Y0193247D01*
X0015267Y0193390D01*
X0015203Y0193535D01*
X0015143Y0193681D01*
X0015087Y0193829D01*
X0015034Y0193978D01*
X0014985Y0194129D01*
X0014940Y0194281D01*
X0014899Y0194434D01*
X0014861Y0194587D01*
X0014828Y0194742D01*
X0014798Y0194898D01*
X0014772Y0195054D01*
X0014751Y0195211D01*
X0014733Y0195368D01*
X0014719Y0195526D01*
X0014709Y0195684D01*
X0014703Y0195842D01*
X0014701Y0196000D01*
D11*
X0126000Y0136000D03*
X0126000Y0106000D03*
X0166000Y0101000D03*
X0186000Y0106000D03*
X0186000Y0126000D03*
X0166000Y0131000D03*
X0216000Y0131000D03*
X0216000Y0121000D03*
X0216000Y0086000D03*
X0216000Y0066000D03*
D12*
X0146000Y0096000D03*
X0146000Y0136000D03*
D13*
X0178229Y0161000D02*
X0183771Y0161000D01*
X0183771Y0181000D02*
X0178229Y0181000D01*
X0178229Y0201000D02*
X0183771Y0201000D01*
X0218229Y0201000D02*
X0223771Y0201000D01*
X0223771Y0181000D02*
X0218229Y0181000D01*
X0218229Y0161000D02*
X0223771Y0161000D01*
D14*
X0106000Y0161000D03*
X0106000Y0171000D03*
X0106000Y0181000D03*
X0106000Y0151000D03*
X0106000Y0141000D03*
X0106000Y0131000D03*
X0106000Y0121000D03*
X0106000Y0111000D03*
X0106000Y0101000D03*
X0106000Y0091000D03*
X0106000Y0081000D03*
X0106000Y0071000D03*
X0106000Y0061000D03*
X0106000Y0051000D03*
X0106000Y0041000D03*
X0016000Y0041000D03*
X0016000Y0051000D03*
X0016000Y0061000D03*
X0016000Y0071000D03*
X0016000Y0081000D03*
X0016000Y0091000D03*
X0016000Y0101000D03*
X0016000Y0111000D03*
X0016000Y0121000D03*
X0016000Y0131000D03*
X0016000Y0141000D03*
X0016000Y0151000D03*
X0016000Y0161000D03*
X0016000Y0171000D03*
X0016000Y0181000D03*
D15*
X0123342Y0073087D02*
X0128658Y0073087D01*
X0123342Y0073087D02*
X0123342Y0073087D01*
X0128658Y0073087D01*
X0128658Y0073087D01*
X0128461Y0063087D02*
X0123539Y0063087D01*
X0123539Y0063087D01*
X0128461Y0063087D01*
X0128461Y0063087D01*
X0128658Y0053087D02*
X0123342Y0053087D01*
X0123342Y0053087D01*
X0128658Y0053087D01*
X0128658Y0053087D01*
X0128658Y0043087D02*
X0123342Y0043087D01*
X0123342Y0043087D01*
X0128658Y0043087D01*
X0128658Y0043087D01*
X0128658Y0033087D02*
X0123342Y0033087D01*
X0123342Y0033087D01*
X0128658Y0033087D01*
X0128658Y0033087D01*
X0128658Y0023087D02*
X0123342Y0023087D01*
X0123342Y0023087D01*
X0128658Y0023087D01*
X0128658Y0023087D01*
X0186334Y0023087D02*
X0191650Y0023087D01*
X0186334Y0023087D02*
X0186334Y0023087D01*
X0191650Y0023087D01*
X0191650Y0023087D01*
X0191650Y0033087D02*
X0186334Y0033087D01*
X0186334Y0033087D01*
X0191650Y0033087D01*
X0191650Y0033087D01*
X0191650Y0043087D02*
X0186334Y0043087D01*
X0186334Y0043087D01*
X0191650Y0043087D01*
X0191650Y0043087D01*
X0191650Y0053087D02*
X0186334Y0053087D01*
X0186334Y0053087D01*
X0191650Y0053087D01*
X0191650Y0053087D01*
X0191453Y0063087D02*
X0186531Y0063087D01*
X0186531Y0063087D01*
X0191453Y0063087D01*
X0191453Y0063087D01*
X0191650Y0073087D02*
X0186334Y0073087D01*
X0186334Y0073087D01*
X0191650Y0073087D01*
X0191650Y0073087D01*
D16*
X0151000Y0171000D03*
X0141000Y0171000D03*
X0131000Y0171000D03*
D17*
X0131000Y0197457D02*
X0131000Y0204543D01*
X0141000Y0204543D02*
X0141000Y0197457D01*
D18*
X0140600Y0180600D02*
X0181000Y0180600D01*
X0151000Y0171000D02*
X0175800Y0136200D01*
X0175800Y0095800D01*
X0215800Y0065800D01*
X0220000Y0064800D02*
X0220000Y0082200D01*
X0215800Y0086400D02*
X0196600Y0105600D01*
X0195400Y0105600D02*
X0215800Y0126000D01*
X0195400Y0105600D02*
X0186400Y0105600D01*
X0166000Y0101000D02*
X0166000Y0115800D01*
X0146200Y0135600D01*
X0166000Y0130800D02*
X0171000Y0125800D01*
X0171000Y0086000D01*
X0091000Y0086000D01*
X0046000Y0041000D01*
X0016000Y0041000D01*
X0096000Y0051000D02*
X0096000Y0076000D01*
X0116000Y0076000D01*
X0121000Y0081000D01*
X0161079Y0081000D01*
X0188992Y0053087D01*
X0189400Y0043200D02*
X0198400Y0043200D01*
X0220000Y0064800D01*
X0188800Y0033600D02*
X0163000Y0033600D01*
X0127000Y0069600D01*
X0107200Y0069600D01*
X0106000Y0061000D02*
X0116000Y0051000D01*
X0116000Y0011000D01*
X0176906Y0011000D01*
X0188992Y0023087D01*
X0145600Y0096000D02*
X0141400Y0100200D01*
X0141400Y0171000D01*
X0140600Y0180600D02*
X0131000Y0171000D01*
X0125800Y0151200D02*
X0106000Y0171000D01*
X0125800Y0151200D02*
X0125800Y0136200D01*
X0096000Y0051000D02*
X0106000Y0041000D01*
D19*
X0106000Y0060600D02*
X0106000Y0061000D01*
X0107200Y0069600D02*
X0106000Y0070800D01*
X0106000Y0071000D01*
X0145600Y0096000D02*
X0146000Y0096000D01*
X0166000Y0130800D02*
X0166000Y0131000D01*
X0146200Y0135600D02*
X0146000Y0136000D01*
X0126000Y0136000D02*
X0125800Y0136200D01*
X0181000Y0180600D02*
X0181000Y0181000D01*
X0216000Y0131000D02*
X0215800Y0130800D01*
X0215800Y0126000D01*
X0196600Y0105600D02*
X0195400Y0105600D01*
X0186400Y0105600D02*
X0186000Y0106000D01*
X0215800Y0086400D02*
X0216000Y0086000D01*
X0216400Y0085800D01*
X0220000Y0082200D01*
X0216000Y0066000D02*
X0215800Y0066000D01*
X0215800Y0065800D01*
X0189400Y0043200D02*
X0188992Y0043087D01*
X0188800Y0033600D02*
X0188992Y0033087D01*
X0188800Y0023400D02*
X0188992Y0023087D01*
M02*
