G75*
%MOIN*%
%OFA0B0*%
%FSLAX25Y25*%
%IPPOS*%
%LPD*%
%AMOC8*
5,1,8,0,0,1.08239X$1,22.5*
%
%ADD10C,0.00000*%
%ADD11C,0.01200*%
%ADD12C,0.00600*%
%ADD13C,0.00500*%
%ADD14R,0.10000X0.02000*%
%ADD15R,0.03000X0.07500*%
%ADD16C,0.00800*%
%ADD17C,0.01000*%
%ADD18C,0.00400*%
%ADD19R,0.02000X0.01500*%
D10*
X0001000Y0001000D02*
X0001000Y0215961D01*
X0234701Y0215961D01*
X0234701Y0001000D01*
X0001000Y0001000D01*
X0014701Y0026000D02*
X0014703Y0026158D01*
X0014709Y0026316D01*
X0014719Y0026474D01*
X0014733Y0026632D01*
X0014751Y0026789D01*
X0014772Y0026946D01*
X0014798Y0027102D01*
X0014828Y0027258D01*
X0014861Y0027413D01*
X0014899Y0027566D01*
X0014940Y0027719D01*
X0014985Y0027871D01*
X0015034Y0028022D01*
X0015087Y0028171D01*
X0015143Y0028319D01*
X0015203Y0028465D01*
X0015267Y0028610D01*
X0015335Y0028753D01*
X0015406Y0028895D01*
X0015480Y0029035D01*
X0015558Y0029172D01*
X0015640Y0029308D01*
X0015724Y0029442D01*
X0015813Y0029573D01*
X0015904Y0029702D01*
X0015999Y0029829D01*
X0016096Y0029954D01*
X0016197Y0030076D01*
X0016301Y0030195D01*
X0016408Y0030312D01*
X0016518Y0030426D01*
X0016631Y0030537D01*
X0016746Y0030646D01*
X0016864Y0030751D01*
X0016985Y0030853D01*
X0017108Y0030953D01*
X0017234Y0031049D01*
X0017362Y0031142D01*
X0017492Y0031232D01*
X0017625Y0031318D01*
X0017760Y0031402D01*
X0017896Y0031481D01*
X0018035Y0031558D01*
X0018176Y0031630D01*
X0018318Y0031700D01*
X0018462Y0031765D01*
X0018608Y0031827D01*
X0018755Y0031885D01*
X0018904Y0031940D01*
X0019054Y0031991D01*
X0019205Y0032038D01*
X0019357Y0032081D01*
X0019510Y0032120D01*
X0019665Y0032156D01*
X0019820Y0032187D01*
X0019976Y0032215D01*
X0020132Y0032239D01*
X0020289Y0032259D01*
X0020447Y0032275D01*
X0020604Y0032287D01*
X0020763Y0032295D01*
X0020921Y0032299D01*
X0021079Y0032299D01*
X0021237Y0032295D01*
X0021396Y0032287D01*
X0021553Y0032275D01*
X0021711Y0032259D01*
X0021868Y0032239D01*
X0022024Y0032215D01*
X0022180Y0032187D01*
X0022335Y0032156D01*
X0022490Y0032120D01*
X0022643Y0032081D01*
X0022795Y0032038D01*
X0022946Y0031991D01*
X0023096Y0031940D01*
X0023245Y0031885D01*
X0023392Y0031827D01*
X0023538Y0031765D01*
X0023682Y0031700D01*
X0023824Y0031630D01*
X0023965Y0031558D01*
X0024104Y0031481D01*
X0024240Y0031402D01*
X0024375Y0031318D01*
X0024508Y0031232D01*
X0024638Y0031142D01*
X0024766Y0031049D01*
X0024892Y0030953D01*
X0025015Y0030853D01*
X0025136Y0030751D01*
X0025254Y0030646D01*
X0025369Y0030537D01*
X0025482Y0030426D01*
X0025592Y0030312D01*
X0025699Y0030195D01*
X0025803Y0030076D01*
X0025904Y0029954D01*
X0026001Y0029829D01*
X0026096Y0029702D01*
X0026187Y0029573D01*
X0026276Y0029442D01*
X0026360Y0029308D01*
X0026442Y0029172D01*
X0026520Y0029035D01*
X0026594Y0028895D01*
X0026665Y0028753D01*
X0026733Y0028610D01*
X0026797Y0028465D01*
X0026857Y0028319D01*
X0026913Y0028171D01*
X0026966Y0028022D01*
X0027015Y0027871D01*
X0027060Y0027719D01*
X0027101Y0027566D01*
X0027139Y0027413D01*
X0027172Y0027258D01*
X0027202Y0027102D01*
X0027228Y0026946D01*
X0027249Y0026789D01*
X0027267Y0026632D01*
X0027281Y0026474D01*
X0027291Y0026316D01*
X0027297Y0026158D01*
X0027299Y0026000D01*
X0027297Y0025842D01*
X0027291Y0025684D01*
X0027281Y0025526D01*
X0027267Y0025368D01*
X0027249Y0025211D01*
X0027228Y0025054D01*
X0027202Y0024898D01*
X0027172Y0024742D01*
X0027139Y0024587D01*
X0027101Y0024434D01*
X0027060Y0024281D01*
X0027015Y0024129D01*
X0026966Y0023978D01*
X0026913Y0023829D01*
X0026857Y0023681D01*
X0026797Y0023535D01*
X0026733Y0023390D01*
X0026665Y0023247D01*
X0026594Y0023105D01*
X0026520Y0022965D01*
X0026442Y0022828D01*
X0026360Y0022692D01*
X0026276Y0022558D01*
X0026187Y0022427D01*
X0026096Y0022298D01*
X0026001Y0022171D01*
X0025904Y0022046D01*
X0025803Y0021924D01*
X0025699Y0021805D01*
X0025592Y0021688D01*
X0025482Y0021574D01*
X0025369Y0021463D01*
X0025254Y0021354D01*
X0025136Y0021249D01*
X0025015Y0021147D01*
X0024892Y0021047D01*
X0024766Y0020951D01*
X0024638Y0020858D01*
X0024508Y0020768D01*
X0024375Y0020682D01*
X0024240Y0020598D01*
X0024104Y0020519D01*
X0023965Y0020442D01*
X0023824Y0020370D01*
X0023682Y0020300D01*
X0023538Y0020235D01*
X0023392Y0020173D01*
X0023245Y0020115D01*
X0023096Y0020060D01*
X0022946Y0020009D01*
X0022795Y0019962D01*
X0022643Y0019919D01*
X0022490Y0019880D01*
X0022335Y0019844D01*
X0022180Y0019813D01*
X0022024Y0019785D01*
X0021868Y0019761D01*
X0021711Y0019741D01*
X0021553Y0019725D01*
X0021396Y0019713D01*
X0021237Y0019705D01*
X0021079Y0019701D01*
X0020921Y0019701D01*
X0020763Y0019705D01*
X0020604Y0019713D01*
X0020447Y0019725D01*
X0020289Y0019741D01*
X0020132Y0019761D01*
X0019976Y0019785D01*
X0019820Y0019813D01*
X0019665Y0019844D01*
X0019510Y0019880D01*
X0019357Y0019919D01*
X0019205Y0019962D01*
X0019054Y0020009D01*
X0018904Y0020060D01*
X0018755Y0020115D01*
X0018608Y0020173D01*
X0018462Y0020235D01*
X0018318Y0020300D01*
X0018176Y0020370D01*
X0018035Y0020442D01*
X0017896Y0020519D01*
X0017760Y0020598D01*
X0017625Y0020682D01*
X0017492Y0020768D01*
X0017362Y0020858D01*
X0017234Y0020951D01*
X0017108Y0021047D01*
X0016985Y0021147D01*
X0016864Y0021249D01*
X0016746Y0021354D01*
X0016631Y0021463D01*
X0016518Y0021574D01*
X0016408Y0021688D01*
X0016301Y0021805D01*
X0016197Y0021924D01*
X0016096Y0022046D01*
X0015999Y0022171D01*
X0015904Y0022298D01*
X0015813Y0022427D01*
X0015724Y0022558D01*
X0015640Y0022692D01*
X0015558Y0022828D01*
X0015480Y0022965D01*
X0015406Y0023105D01*
X0015335Y0023247D01*
X0015267Y0023390D01*
X0015203Y0023535D01*
X0015143Y0023681D01*
X0015087Y0023829D01*
X0015034Y0023978D01*
X0014985Y0024129D01*
X0014940Y0024281D01*
X0014899Y0024434D01*
X0014861Y0024587D01*
X0014828Y0024742D01*
X0014798Y0024898D01*
X0014772Y0025054D01*
X0014751Y0025211D01*
X0014733Y0025368D01*
X0014719Y0025526D01*
X0014709Y0025684D01*
X0014703Y0025842D01*
X0014701Y0026000D01*
X0094701Y0026000D02*
X0094703Y0026158D01*
X0094709Y0026316D01*
X0094719Y0026474D01*
X0094733Y0026632D01*
X0094751Y0026789D01*
X0094772Y0026946D01*
X0094798Y0027102D01*
X0094828Y0027258D01*
X0094861Y0027413D01*
X0094899Y0027566D01*
X0094940Y0027719D01*
X0094985Y0027871D01*
X0095034Y0028022D01*
X0095087Y0028171D01*
X0095143Y0028319D01*
X0095203Y0028465D01*
X0095267Y0028610D01*
X0095335Y0028753D01*
X0095406Y0028895D01*
X0095480Y0029035D01*
X0095558Y0029172D01*
X0095640Y0029308D01*
X0095724Y0029442D01*
X0095813Y0029573D01*
X0095904Y0029702D01*
X0095999Y0029829D01*
X0096096Y0029954D01*
X0096197Y0030076D01*
X0096301Y0030195D01*
X0096408Y0030312D01*
X0096518Y0030426D01*
X0096631Y0030537D01*
X0096746Y0030646D01*
X0096864Y0030751D01*
X0096985Y0030853D01*
X0097108Y0030953D01*
X0097234Y0031049D01*
X0097362Y0031142D01*
X0097492Y0031232D01*
X0097625Y0031318D01*
X0097760Y0031402D01*
X0097896Y0031481D01*
X0098035Y0031558D01*
X0098176Y0031630D01*
X0098318Y0031700D01*
X0098462Y0031765D01*
X0098608Y0031827D01*
X0098755Y0031885D01*
X0098904Y0031940D01*
X0099054Y0031991D01*
X0099205Y0032038D01*
X0099357Y0032081D01*
X0099510Y0032120D01*
X0099665Y0032156D01*
X0099820Y0032187D01*
X0099976Y0032215D01*
X0100132Y0032239D01*
X0100289Y0032259D01*
X0100447Y0032275D01*
X0100604Y0032287D01*
X0100763Y0032295D01*
X0100921Y0032299D01*
X0101079Y0032299D01*
X0101237Y0032295D01*
X0101396Y0032287D01*
X0101553Y0032275D01*
X0101711Y0032259D01*
X0101868Y0032239D01*
X0102024Y0032215D01*
X0102180Y0032187D01*
X0102335Y0032156D01*
X0102490Y0032120D01*
X0102643Y0032081D01*
X0102795Y0032038D01*
X0102946Y0031991D01*
X0103096Y0031940D01*
X0103245Y0031885D01*
X0103392Y0031827D01*
X0103538Y0031765D01*
X0103682Y0031700D01*
X0103824Y0031630D01*
X0103965Y0031558D01*
X0104104Y0031481D01*
X0104240Y0031402D01*
X0104375Y0031318D01*
X0104508Y0031232D01*
X0104638Y0031142D01*
X0104766Y0031049D01*
X0104892Y0030953D01*
X0105015Y0030853D01*
X0105136Y0030751D01*
X0105254Y0030646D01*
X0105369Y0030537D01*
X0105482Y0030426D01*
X0105592Y0030312D01*
X0105699Y0030195D01*
X0105803Y0030076D01*
X0105904Y0029954D01*
X0106001Y0029829D01*
X0106096Y0029702D01*
X0106187Y0029573D01*
X0106276Y0029442D01*
X0106360Y0029308D01*
X0106442Y0029172D01*
X0106520Y0029035D01*
X0106594Y0028895D01*
X0106665Y0028753D01*
X0106733Y0028610D01*
X0106797Y0028465D01*
X0106857Y0028319D01*
X0106913Y0028171D01*
X0106966Y0028022D01*
X0107015Y0027871D01*
X0107060Y0027719D01*
X0107101Y0027566D01*
X0107139Y0027413D01*
X0107172Y0027258D01*
X0107202Y0027102D01*
X0107228Y0026946D01*
X0107249Y0026789D01*
X0107267Y0026632D01*
X0107281Y0026474D01*
X0107291Y0026316D01*
X0107297Y0026158D01*
X0107299Y0026000D01*
X0107297Y0025842D01*
X0107291Y0025684D01*
X0107281Y0025526D01*
X0107267Y0025368D01*
X0107249Y0025211D01*
X0107228Y0025054D01*
X0107202Y0024898D01*
X0107172Y0024742D01*
X0107139Y0024587D01*
X0107101Y0024434D01*
X0107060Y0024281D01*
X0107015Y0024129D01*
X0106966Y0023978D01*
X0106913Y0023829D01*
X0106857Y0023681D01*
X0106797Y0023535D01*
X0106733Y0023390D01*
X0106665Y0023247D01*
X0106594Y0023105D01*
X0106520Y0022965D01*
X0106442Y0022828D01*
X0106360Y0022692D01*
X0106276Y0022558D01*
X0106187Y0022427D01*
X0106096Y0022298D01*
X0106001Y0022171D01*
X0105904Y0022046D01*
X0105803Y0021924D01*
X0105699Y0021805D01*
X0105592Y0021688D01*
X0105482Y0021574D01*
X0105369Y0021463D01*
X0105254Y0021354D01*
X0105136Y0021249D01*
X0105015Y0021147D01*
X0104892Y0021047D01*
X0104766Y0020951D01*
X0104638Y0020858D01*
X0104508Y0020768D01*
X0104375Y0020682D01*
X0104240Y0020598D01*
X0104104Y0020519D01*
X0103965Y0020442D01*
X0103824Y0020370D01*
X0103682Y0020300D01*
X0103538Y0020235D01*
X0103392Y0020173D01*
X0103245Y0020115D01*
X0103096Y0020060D01*
X0102946Y0020009D01*
X0102795Y0019962D01*
X0102643Y0019919D01*
X0102490Y0019880D01*
X0102335Y0019844D01*
X0102180Y0019813D01*
X0102024Y0019785D01*
X0101868Y0019761D01*
X0101711Y0019741D01*
X0101553Y0019725D01*
X0101396Y0019713D01*
X0101237Y0019705D01*
X0101079Y0019701D01*
X0100921Y0019701D01*
X0100763Y0019705D01*
X0100604Y0019713D01*
X0100447Y0019725D01*
X0100289Y0019741D01*
X0100132Y0019761D01*
X0099976Y0019785D01*
X0099820Y0019813D01*
X0099665Y0019844D01*
X0099510Y0019880D01*
X0099357Y0019919D01*
X0099205Y0019962D01*
X0099054Y0020009D01*
X0098904Y0020060D01*
X0098755Y0020115D01*
X0098608Y0020173D01*
X0098462Y0020235D01*
X0098318Y0020300D01*
X0098176Y0020370D01*
X0098035Y0020442D01*
X0097896Y0020519D01*
X0097760Y0020598D01*
X0097625Y0020682D01*
X0097492Y0020768D01*
X0097362Y0020858D01*
X0097234Y0020951D01*
X0097108Y0021047D01*
X0096985Y0021147D01*
X0096864Y0021249D01*
X0096746Y0021354D01*
X0096631Y0021463D01*
X0096518Y0021574D01*
X0096408Y0021688D01*
X0096301Y0021805D01*
X0096197Y0021924D01*
X0096096Y0022046D01*
X0095999Y0022171D01*
X0095904Y0022298D01*
X0095813Y0022427D01*
X0095724Y0022558D01*
X0095640Y0022692D01*
X0095558Y0022828D01*
X0095480Y0022965D01*
X0095406Y0023105D01*
X0095335Y0023247D01*
X0095267Y0023390D01*
X0095203Y0023535D01*
X0095143Y0023681D01*
X0095087Y0023829D01*
X0095034Y0023978D01*
X0094985Y0024129D01*
X0094940Y0024281D01*
X0094899Y0024434D01*
X0094861Y0024587D01*
X0094828Y0024742D01*
X0094798Y0024898D01*
X0094772Y0025054D01*
X0094751Y0025211D01*
X0094733Y0025368D01*
X0094719Y0025526D01*
X0094709Y0025684D01*
X0094703Y0025842D01*
X0094701Y0026000D01*
X0198835Y0161000D02*
X0198837Y0161093D01*
X0198843Y0161185D01*
X0198853Y0161277D01*
X0198867Y0161368D01*
X0198884Y0161459D01*
X0198906Y0161549D01*
X0198931Y0161638D01*
X0198960Y0161726D01*
X0198993Y0161812D01*
X0199030Y0161897D01*
X0199070Y0161981D01*
X0199114Y0162062D01*
X0199161Y0162142D01*
X0199211Y0162220D01*
X0199265Y0162295D01*
X0199322Y0162368D01*
X0199382Y0162438D01*
X0199445Y0162506D01*
X0199511Y0162571D01*
X0199579Y0162633D01*
X0199650Y0162693D01*
X0199724Y0162749D01*
X0199800Y0162802D01*
X0199878Y0162851D01*
X0199958Y0162898D01*
X0200040Y0162940D01*
X0200124Y0162980D01*
X0200209Y0163015D01*
X0200296Y0163047D01*
X0200384Y0163076D01*
X0200473Y0163100D01*
X0200563Y0163121D01*
X0200654Y0163137D01*
X0200746Y0163150D01*
X0200838Y0163159D01*
X0200931Y0163164D01*
X0201023Y0163165D01*
X0201116Y0163162D01*
X0201208Y0163155D01*
X0201300Y0163144D01*
X0201391Y0163129D01*
X0201482Y0163111D01*
X0201572Y0163088D01*
X0201660Y0163062D01*
X0201748Y0163032D01*
X0201834Y0162998D01*
X0201918Y0162961D01*
X0202001Y0162919D01*
X0202082Y0162875D01*
X0202162Y0162827D01*
X0202239Y0162776D01*
X0202313Y0162721D01*
X0202386Y0162663D01*
X0202456Y0162603D01*
X0202523Y0162539D01*
X0202587Y0162473D01*
X0202649Y0162403D01*
X0202707Y0162332D01*
X0202762Y0162258D01*
X0202814Y0162181D01*
X0202863Y0162102D01*
X0202909Y0162022D01*
X0202951Y0161939D01*
X0202989Y0161855D01*
X0203024Y0161769D01*
X0203055Y0161682D01*
X0203082Y0161594D01*
X0203105Y0161504D01*
X0203125Y0161414D01*
X0203141Y0161323D01*
X0203153Y0161231D01*
X0203161Y0161139D01*
X0203165Y0161046D01*
X0203165Y0160954D01*
X0203161Y0160861D01*
X0203153Y0160769D01*
X0203141Y0160677D01*
X0203125Y0160586D01*
X0203105Y0160496D01*
X0203082Y0160406D01*
X0203055Y0160318D01*
X0203024Y0160231D01*
X0202989Y0160145D01*
X0202951Y0160061D01*
X0202909Y0159978D01*
X0202863Y0159898D01*
X0202814Y0159819D01*
X0202762Y0159742D01*
X0202707Y0159668D01*
X0202649Y0159597D01*
X0202587Y0159527D01*
X0202523Y0159461D01*
X0202456Y0159397D01*
X0202386Y0159337D01*
X0202313Y0159279D01*
X0202239Y0159224D01*
X0202162Y0159173D01*
X0202083Y0159125D01*
X0202001Y0159081D01*
X0201918Y0159039D01*
X0201834Y0159002D01*
X0201748Y0158968D01*
X0201660Y0158938D01*
X0201572Y0158912D01*
X0201482Y0158889D01*
X0201391Y0158871D01*
X0201300Y0158856D01*
X0201208Y0158845D01*
X0201116Y0158838D01*
X0201023Y0158835D01*
X0200931Y0158836D01*
X0200838Y0158841D01*
X0200746Y0158850D01*
X0200654Y0158863D01*
X0200563Y0158879D01*
X0200473Y0158900D01*
X0200384Y0158924D01*
X0200296Y0158953D01*
X0200209Y0158985D01*
X0200124Y0159020D01*
X0200040Y0159060D01*
X0199958Y0159102D01*
X0199878Y0159149D01*
X0199800Y0159198D01*
X0199724Y0159251D01*
X0199650Y0159307D01*
X0199579Y0159367D01*
X0199511Y0159429D01*
X0199445Y0159494D01*
X0199382Y0159562D01*
X0199322Y0159632D01*
X0199265Y0159705D01*
X0199211Y0159780D01*
X0199161Y0159858D01*
X0199114Y0159938D01*
X0199070Y0160019D01*
X0199030Y0160103D01*
X0198993Y0160188D01*
X0198960Y0160274D01*
X0198931Y0160362D01*
X0198906Y0160451D01*
X0198884Y0160541D01*
X0198867Y0160632D01*
X0198853Y0160723D01*
X0198843Y0160815D01*
X0198837Y0160907D01*
X0198835Y0161000D01*
X0198835Y0201000D02*
X0198837Y0201093D01*
X0198843Y0201185D01*
X0198853Y0201277D01*
X0198867Y0201368D01*
X0198884Y0201459D01*
X0198906Y0201549D01*
X0198931Y0201638D01*
X0198960Y0201726D01*
X0198993Y0201812D01*
X0199030Y0201897D01*
X0199070Y0201981D01*
X0199114Y0202062D01*
X0199161Y0202142D01*
X0199211Y0202220D01*
X0199265Y0202295D01*
X0199322Y0202368D01*
X0199382Y0202438D01*
X0199445Y0202506D01*
X0199511Y0202571D01*
X0199579Y0202633D01*
X0199650Y0202693D01*
X0199724Y0202749D01*
X0199800Y0202802D01*
X0199878Y0202851D01*
X0199958Y0202898D01*
X0200040Y0202940D01*
X0200124Y0202980D01*
X0200209Y0203015D01*
X0200296Y0203047D01*
X0200384Y0203076D01*
X0200473Y0203100D01*
X0200563Y0203121D01*
X0200654Y0203137D01*
X0200746Y0203150D01*
X0200838Y0203159D01*
X0200931Y0203164D01*
X0201023Y0203165D01*
X0201116Y0203162D01*
X0201208Y0203155D01*
X0201300Y0203144D01*
X0201391Y0203129D01*
X0201482Y0203111D01*
X0201572Y0203088D01*
X0201660Y0203062D01*
X0201748Y0203032D01*
X0201834Y0202998D01*
X0201918Y0202961D01*
X0202001Y0202919D01*
X0202082Y0202875D01*
X0202162Y0202827D01*
X0202239Y0202776D01*
X0202313Y0202721D01*
X0202386Y0202663D01*
X0202456Y0202603D01*
X0202523Y0202539D01*
X0202587Y0202473D01*
X0202649Y0202403D01*
X0202707Y0202332D01*
X0202762Y0202258D01*
X0202814Y0202181D01*
X0202863Y0202102D01*
X0202909Y0202022D01*
X0202951Y0201939D01*
X0202989Y0201855D01*
X0203024Y0201769D01*
X0203055Y0201682D01*
X0203082Y0201594D01*
X0203105Y0201504D01*
X0203125Y0201414D01*
X0203141Y0201323D01*
X0203153Y0201231D01*
X0203161Y0201139D01*
X0203165Y0201046D01*
X0203165Y0200954D01*
X0203161Y0200861D01*
X0203153Y0200769D01*
X0203141Y0200677D01*
X0203125Y0200586D01*
X0203105Y0200496D01*
X0203082Y0200406D01*
X0203055Y0200318D01*
X0203024Y0200231D01*
X0202989Y0200145D01*
X0202951Y0200061D01*
X0202909Y0199978D01*
X0202863Y0199898D01*
X0202814Y0199819D01*
X0202762Y0199742D01*
X0202707Y0199668D01*
X0202649Y0199597D01*
X0202587Y0199527D01*
X0202523Y0199461D01*
X0202456Y0199397D01*
X0202386Y0199337D01*
X0202313Y0199279D01*
X0202239Y0199224D01*
X0202162Y0199173D01*
X0202083Y0199125D01*
X0202001Y0199081D01*
X0201918Y0199039D01*
X0201834Y0199002D01*
X0201748Y0198968D01*
X0201660Y0198938D01*
X0201572Y0198912D01*
X0201482Y0198889D01*
X0201391Y0198871D01*
X0201300Y0198856D01*
X0201208Y0198845D01*
X0201116Y0198838D01*
X0201023Y0198835D01*
X0200931Y0198836D01*
X0200838Y0198841D01*
X0200746Y0198850D01*
X0200654Y0198863D01*
X0200563Y0198879D01*
X0200473Y0198900D01*
X0200384Y0198924D01*
X0200296Y0198953D01*
X0200209Y0198985D01*
X0200124Y0199020D01*
X0200040Y0199060D01*
X0199958Y0199102D01*
X0199878Y0199149D01*
X0199800Y0199198D01*
X0199724Y0199251D01*
X0199650Y0199307D01*
X0199579Y0199367D01*
X0199511Y0199429D01*
X0199445Y0199494D01*
X0199382Y0199562D01*
X0199322Y0199632D01*
X0199265Y0199705D01*
X0199211Y0199780D01*
X0199161Y0199858D01*
X0199114Y0199938D01*
X0199070Y0200019D01*
X0199030Y0200103D01*
X0198993Y0200188D01*
X0198960Y0200274D01*
X0198931Y0200362D01*
X0198906Y0200451D01*
X0198884Y0200541D01*
X0198867Y0200632D01*
X0198853Y0200723D01*
X0198843Y0200815D01*
X0198837Y0200907D01*
X0198835Y0201000D01*
X0094701Y0196000D02*
X0094703Y0196158D01*
X0094709Y0196316D01*
X0094719Y0196474D01*
X0094733Y0196632D01*
X0094751Y0196789D01*
X0094772Y0196946D01*
X0094798Y0197102D01*
X0094828Y0197258D01*
X0094861Y0197413D01*
X0094899Y0197566D01*
X0094940Y0197719D01*
X0094985Y0197871D01*
X0095034Y0198022D01*
X0095087Y0198171D01*
X0095143Y0198319D01*
X0095203Y0198465D01*
X0095267Y0198610D01*
X0095335Y0198753D01*
X0095406Y0198895D01*
X0095480Y0199035D01*
X0095558Y0199172D01*
X0095640Y0199308D01*
X0095724Y0199442D01*
X0095813Y0199573D01*
X0095904Y0199702D01*
X0095999Y0199829D01*
X0096096Y0199954D01*
X0096197Y0200076D01*
X0096301Y0200195D01*
X0096408Y0200312D01*
X0096518Y0200426D01*
X0096631Y0200537D01*
X0096746Y0200646D01*
X0096864Y0200751D01*
X0096985Y0200853D01*
X0097108Y0200953D01*
X0097234Y0201049D01*
X0097362Y0201142D01*
X0097492Y0201232D01*
X0097625Y0201318D01*
X0097760Y0201402D01*
X0097896Y0201481D01*
X0098035Y0201558D01*
X0098176Y0201630D01*
X0098318Y0201700D01*
X0098462Y0201765D01*
X0098608Y0201827D01*
X0098755Y0201885D01*
X0098904Y0201940D01*
X0099054Y0201991D01*
X0099205Y0202038D01*
X0099357Y0202081D01*
X0099510Y0202120D01*
X0099665Y0202156D01*
X0099820Y0202187D01*
X0099976Y0202215D01*
X0100132Y0202239D01*
X0100289Y0202259D01*
X0100447Y0202275D01*
X0100604Y0202287D01*
X0100763Y0202295D01*
X0100921Y0202299D01*
X0101079Y0202299D01*
X0101237Y0202295D01*
X0101396Y0202287D01*
X0101553Y0202275D01*
X0101711Y0202259D01*
X0101868Y0202239D01*
X0102024Y0202215D01*
X0102180Y0202187D01*
X0102335Y0202156D01*
X0102490Y0202120D01*
X0102643Y0202081D01*
X0102795Y0202038D01*
X0102946Y0201991D01*
X0103096Y0201940D01*
X0103245Y0201885D01*
X0103392Y0201827D01*
X0103538Y0201765D01*
X0103682Y0201700D01*
X0103824Y0201630D01*
X0103965Y0201558D01*
X0104104Y0201481D01*
X0104240Y0201402D01*
X0104375Y0201318D01*
X0104508Y0201232D01*
X0104638Y0201142D01*
X0104766Y0201049D01*
X0104892Y0200953D01*
X0105015Y0200853D01*
X0105136Y0200751D01*
X0105254Y0200646D01*
X0105369Y0200537D01*
X0105482Y0200426D01*
X0105592Y0200312D01*
X0105699Y0200195D01*
X0105803Y0200076D01*
X0105904Y0199954D01*
X0106001Y0199829D01*
X0106096Y0199702D01*
X0106187Y0199573D01*
X0106276Y0199442D01*
X0106360Y0199308D01*
X0106442Y0199172D01*
X0106520Y0199035D01*
X0106594Y0198895D01*
X0106665Y0198753D01*
X0106733Y0198610D01*
X0106797Y0198465D01*
X0106857Y0198319D01*
X0106913Y0198171D01*
X0106966Y0198022D01*
X0107015Y0197871D01*
X0107060Y0197719D01*
X0107101Y0197566D01*
X0107139Y0197413D01*
X0107172Y0197258D01*
X0107202Y0197102D01*
X0107228Y0196946D01*
X0107249Y0196789D01*
X0107267Y0196632D01*
X0107281Y0196474D01*
X0107291Y0196316D01*
X0107297Y0196158D01*
X0107299Y0196000D01*
X0107297Y0195842D01*
X0107291Y0195684D01*
X0107281Y0195526D01*
X0107267Y0195368D01*
X0107249Y0195211D01*
X0107228Y0195054D01*
X0107202Y0194898D01*
X0107172Y0194742D01*
X0107139Y0194587D01*
X0107101Y0194434D01*
X0107060Y0194281D01*
X0107015Y0194129D01*
X0106966Y0193978D01*
X0106913Y0193829D01*
X0106857Y0193681D01*
X0106797Y0193535D01*
X0106733Y0193390D01*
X0106665Y0193247D01*
X0106594Y0193105D01*
X0106520Y0192965D01*
X0106442Y0192828D01*
X0106360Y0192692D01*
X0106276Y0192558D01*
X0106187Y0192427D01*
X0106096Y0192298D01*
X0106001Y0192171D01*
X0105904Y0192046D01*
X0105803Y0191924D01*
X0105699Y0191805D01*
X0105592Y0191688D01*
X0105482Y0191574D01*
X0105369Y0191463D01*
X0105254Y0191354D01*
X0105136Y0191249D01*
X0105015Y0191147D01*
X0104892Y0191047D01*
X0104766Y0190951D01*
X0104638Y0190858D01*
X0104508Y0190768D01*
X0104375Y0190682D01*
X0104240Y0190598D01*
X0104104Y0190519D01*
X0103965Y0190442D01*
X0103824Y0190370D01*
X0103682Y0190300D01*
X0103538Y0190235D01*
X0103392Y0190173D01*
X0103245Y0190115D01*
X0103096Y0190060D01*
X0102946Y0190009D01*
X0102795Y0189962D01*
X0102643Y0189919D01*
X0102490Y0189880D01*
X0102335Y0189844D01*
X0102180Y0189813D01*
X0102024Y0189785D01*
X0101868Y0189761D01*
X0101711Y0189741D01*
X0101553Y0189725D01*
X0101396Y0189713D01*
X0101237Y0189705D01*
X0101079Y0189701D01*
X0100921Y0189701D01*
X0100763Y0189705D01*
X0100604Y0189713D01*
X0100447Y0189725D01*
X0100289Y0189741D01*
X0100132Y0189761D01*
X0099976Y0189785D01*
X0099820Y0189813D01*
X0099665Y0189844D01*
X0099510Y0189880D01*
X0099357Y0189919D01*
X0099205Y0189962D01*
X0099054Y0190009D01*
X0098904Y0190060D01*
X0098755Y0190115D01*
X0098608Y0190173D01*
X0098462Y0190235D01*
X0098318Y0190300D01*
X0098176Y0190370D01*
X0098035Y0190442D01*
X0097896Y0190519D01*
X0097760Y0190598D01*
X0097625Y0190682D01*
X0097492Y0190768D01*
X0097362Y0190858D01*
X0097234Y0190951D01*
X0097108Y0191047D01*
X0096985Y0191147D01*
X0096864Y0191249D01*
X0096746Y0191354D01*
X0096631Y0191463D01*
X0096518Y0191574D01*
X0096408Y0191688D01*
X0096301Y0191805D01*
X0096197Y0191924D01*
X0096096Y0192046D01*
X0095999Y0192171D01*
X0095904Y0192298D01*
X0095813Y0192427D01*
X0095724Y0192558D01*
X0095640Y0192692D01*
X0095558Y0192828D01*
X0095480Y0192965D01*
X0095406Y0193105D01*
X0095335Y0193247D01*
X0095267Y0193390D01*
X0095203Y0193535D01*
X0095143Y0193681D01*
X0095087Y0193829D01*
X0095034Y0193978D01*
X0094985Y0194129D01*
X0094940Y0194281D01*
X0094899Y0194434D01*
X0094861Y0194587D01*
X0094828Y0194742D01*
X0094798Y0194898D01*
X0094772Y0195054D01*
X0094751Y0195211D01*
X0094733Y0195368D01*
X0094719Y0195526D01*
X0094709Y0195684D01*
X0094703Y0195842D01*
X0094701Y0196000D01*
X0014701Y0196000D02*
X0014703Y0196158D01*
X0014709Y0196316D01*
X0014719Y0196474D01*
X0014733Y0196632D01*
X0014751Y0196789D01*
X0014772Y0196946D01*
X0014798Y0197102D01*
X0014828Y0197258D01*
X0014861Y0197413D01*
X0014899Y0197566D01*
X0014940Y0197719D01*
X0014985Y0197871D01*
X0015034Y0198022D01*
X0015087Y0198171D01*
X0015143Y0198319D01*
X0015203Y0198465D01*
X0015267Y0198610D01*
X0015335Y0198753D01*
X0015406Y0198895D01*
X0015480Y0199035D01*
X0015558Y0199172D01*
X0015640Y0199308D01*
X0015724Y0199442D01*
X0015813Y0199573D01*
X0015904Y0199702D01*
X0015999Y0199829D01*
X0016096Y0199954D01*
X0016197Y0200076D01*
X0016301Y0200195D01*
X0016408Y0200312D01*
X0016518Y0200426D01*
X0016631Y0200537D01*
X0016746Y0200646D01*
X0016864Y0200751D01*
X0016985Y0200853D01*
X0017108Y0200953D01*
X0017234Y0201049D01*
X0017362Y0201142D01*
X0017492Y0201232D01*
X0017625Y0201318D01*
X0017760Y0201402D01*
X0017896Y0201481D01*
X0018035Y0201558D01*
X0018176Y0201630D01*
X0018318Y0201700D01*
X0018462Y0201765D01*
X0018608Y0201827D01*
X0018755Y0201885D01*
X0018904Y0201940D01*
X0019054Y0201991D01*
X0019205Y0202038D01*
X0019357Y0202081D01*
X0019510Y0202120D01*
X0019665Y0202156D01*
X0019820Y0202187D01*
X0019976Y0202215D01*
X0020132Y0202239D01*
X0020289Y0202259D01*
X0020447Y0202275D01*
X0020604Y0202287D01*
X0020763Y0202295D01*
X0020921Y0202299D01*
X0021079Y0202299D01*
X0021237Y0202295D01*
X0021396Y0202287D01*
X0021553Y0202275D01*
X0021711Y0202259D01*
X0021868Y0202239D01*
X0022024Y0202215D01*
X0022180Y0202187D01*
X0022335Y0202156D01*
X0022490Y0202120D01*
X0022643Y0202081D01*
X0022795Y0202038D01*
X0022946Y0201991D01*
X0023096Y0201940D01*
X0023245Y0201885D01*
X0023392Y0201827D01*
X0023538Y0201765D01*
X0023682Y0201700D01*
X0023824Y0201630D01*
X0023965Y0201558D01*
X0024104Y0201481D01*
X0024240Y0201402D01*
X0024375Y0201318D01*
X0024508Y0201232D01*
X0024638Y0201142D01*
X0024766Y0201049D01*
X0024892Y0200953D01*
X0025015Y0200853D01*
X0025136Y0200751D01*
X0025254Y0200646D01*
X0025369Y0200537D01*
X0025482Y0200426D01*
X0025592Y0200312D01*
X0025699Y0200195D01*
X0025803Y0200076D01*
X0025904Y0199954D01*
X0026001Y0199829D01*
X0026096Y0199702D01*
X0026187Y0199573D01*
X0026276Y0199442D01*
X0026360Y0199308D01*
X0026442Y0199172D01*
X0026520Y0199035D01*
X0026594Y0198895D01*
X0026665Y0198753D01*
X0026733Y0198610D01*
X0026797Y0198465D01*
X0026857Y0198319D01*
X0026913Y0198171D01*
X0026966Y0198022D01*
X0027015Y0197871D01*
X0027060Y0197719D01*
X0027101Y0197566D01*
X0027139Y0197413D01*
X0027172Y0197258D01*
X0027202Y0197102D01*
X0027228Y0196946D01*
X0027249Y0196789D01*
X0027267Y0196632D01*
X0027281Y0196474D01*
X0027291Y0196316D01*
X0027297Y0196158D01*
X0027299Y0196000D01*
X0027297Y0195842D01*
X0027291Y0195684D01*
X0027281Y0195526D01*
X0027267Y0195368D01*
X0027249Y0195211D01*
X0027228Y0195054D01*
X0027202Y0194898D01*
X0027172Y0194742D01*
X0027139Y0194587D01*
X0027101Y0194434D01*
X0027060Y0194281D01*
X0027015Y0194129D01*
X0026966Y0193978D01*
X0026913Y0193829D01*
X0026857Y0193681D01*
X0026797Y0193535D01*
X0026733Y0193390D01*
X0026665Y0193247D01*
X0026594Y0193105D01*
X0026520Y0192965D01*
X0026442Y0192828D01*
X0026360Y0192692D01*
X0026276Y0192558D01*
X0026187Y0192427D01*
X0026096Y0192298D01*
X0026001Y0192171D01*
X0025904Y0192046D01*
X0025803Y0191924D01*
X0025699Y0191805D01*
X0025592Y0191688D01*
X0025482Y0191574D01*
X0025369Y0191463D01*
X0025254Y0191354D01*
X0025136Y0191249D01*
X0025015Y0191147D01*
X0024892Y0191047D01*
X0024766Y0190951D01*
X0024638Y0190858D01*
X0024508Y0190768D01*
X0024375Y0190682D01*
X0024240Y0190598D01*
X0024104Y0190519D01*
X0023965Y0190442D01*
X0023824Y0190370D01*
X0023682Y0190300D01*
X0023538Y0190235D01*
X0023392Y0190173D01*
X0023245Y0190115D01*
X0023096Y0190060D01*
X0022946Y0190009D01*
X0022795Y0189962D01*
X0022643Y0189919D01*
X0022490Y0189880D01*
X0022335Y0189844D01*
X0022180Y0189813D01*
X0022024Y0189785D01*
X0021868Y0189761D01*
X0021711Y0189741D01*
X0021553Y0189725D01*
X0021396Y0189713D01*
X0021237Y0189705D01*
X0021079Y0189701D01*
X0020921Y0189701D01*
X0020763Y0189705D01*
X0020604Y0189713D01*
X0020447Y0189725D01*
X0020289Y0189741D01*
X0020132Y0189761D01*
X0019976Y0189785D01*
X0019820Y0189813D01*
X0019665Y0189844D01*
X0019510Y0189880D01*
X0019357Y0189919D01*
X0019205Y0189962D01*
X0019054Y0190009D01*
X0018904Y0190060D01*
X0018755Y0190115D01*
X0018608Y0190173D01*
X0018462Y0190235D01*
X0018318Y0190300D01*
X0018176Y0190370D01*
X0018035Y0190442D01*
X0017896Y0190519D01*
X0017760Y0190598D01*
X0017625Y0190682D01*
X0017492Y0190768D01*
X0017362Y0190858D01*
X0017234Y0190951D01*
X0017108Y0191047D01*
X0016985Y0191147D01*
X0016864Y0191249D01*
X0016746Y0191354D01*
X0016631Y0191463D01*
X0016518Y0191574D01*
X0016408Y0191688D01*
X0016301Y0191805D01*
X0016197Y0191924D01*
X0016096Y0192046D01*
X0015999Y0192171D01*
X0015904Y0192298D01*
X0015813Y0192427D01*
X0015724Y0192558D01*
X0015640Y0192692D01*
X0015558Y0192828D01*
X0015480Y0192965D01*
X0015406Y0193105D01*
X0015335Y0193247D01*
X0015267Y0193390D01*
X0015203Y0193535D01*
X0015143Y0193681D01*
X0015087Y0193829D01*
X0015034Y0193978D01*
X0014985Y0194129D01*
X0014940Y0194281D01*
X0014899Y0194434D01*
X0014861Y0194587D01*
X0014828Y0194742D01*
X0014798Y0194898D01*
X0014772Y0195054D01*
X0014751Y0195211D01*
X0014733Y0195368D01*
X0014719Y0195526D01*
X0014709Y0195684D01*
X0014703Y0195842D01*
X0014701Y0196000D01*
D11*
X0183500Y0117300D02*
X0186000Y0117300D01*
X0188500Y0117300D01*
X0188500Y0114800D02*
X0186000Y0114800D01*
X0183500Y0114800D01*
X0213500Y0077200D02*
X0216000Y0077200D01*
X0218500Y0077200D01*
X0218500Y0074700D02*
X0216000Y0074700D01*
X0213500Y0074700D01*
D12*
X0216000Y0074700D02*
X0216000Y0070000D01*
X0216000Y0077200D02*
X0216000Y0082000D01*
X0211000Y0089500D02*
X0211002Y0089560D01*
X0211007Y0089621D01*
X0211016Y0089680D01*
X0211029Y0089739D01*
X0211045Y0089798D01*
X0211065Y0089855D01*
X0211088Y0089910D01*
X0211115Y0089965D01*
X0211144Y0090017D01*
X0211177Y0090068D01*
X0211213Y0090117D01*
X0211251Y0090163D01*
X0211293Y0090207D01*
X0211337Y0090249D01*
X0211383Y0090287D01*
X0211432Y0090323D01*
X0211483Y0090356D01*
X0211535Y0090385D01*
X0211590Y0090412D01*
X0211645Y0090435D01*
X0211702Y0090455D01*
X0211761Y0090471D01*
X0211820Y0090484D01*
X0211879Y0090493D01*
X0211940Y0090498D01*
X0212000Y0090500D01*
X0220000Y0090500D01*
X0220060Y0090498D01*
X0220121Y0090493D01*
X0220180Y0090484D01*
X0220239Y0090471D01*
X0220298Y0090455D01*
X0220355Y0090435D01*
X0220410Y0090412D01*
X0220465Y0090385D01*
X0220517Y0090356D01*
X0220568Y0090323D01*
X0220617Y0090287D01*
X0220663Y0090249D01*
X0220707Y0090207D01*
X0220749Y0090163D01*
X0220787Y0090117D01*
X0220823Y0090068D01*
X0220856Y0090017D01*
X0220885Y0089965D01*
X0220912Y0089910D01*
X0220935Y0089855D01*
X0220955Y0089798D01*
X0220971Y0089739D01*
X0220984Y0089680D01*
X0220993Y0089621D01*
X0220998Y0089560D01*
X0221000Y0089500D01*
X0221000Y0062500D01*
X0220998Y0062440D01*
X0220993Y0062379D01*
X0220984Y0062320D01*
X0220971Y0062261D01*
X0220955Y0062202D01*
X0220935Y0062145D01*
X0220912Y0062090D01*
X0220885Y0062035D01*
X0220856Y0061983D01*
X0220823Y0061932D01*
X0220787Y0061883D01*
X0220749Y0061837D01*
X0220707Y0061793D01*
X0220663Y0061751D01*
X0220617Y0061713D01*
X0220568Y0061677D01*
X0220517Y0061644D01*
X0220465Y0061615D01*
X0220410Y0061588D01*
X0220355Y0061565D01*
X0220298Y0061545D01*
X0220239Y0061529D01*
X0220180Y0061516D01*
X0220121Y0061507D01*
X0220060Y0061502D01*
X0220000Y0061500D01*
X0212000Y0061500D01*
X0211940Y0061502D01*
X0211879Y0061507D01*
X0211820Y0061516D01*
X0211761Y0061529D01*
X0211702Y0061545D01*
X0211645Y0061565D01*
X0211590Y0061588D01*
X0211535Y0061615D01*
X0211483Y0061644D01*
X0211432Y0061677D01*
X0211383Y0061713D01*
X0211337Y0061751D01*
X0211293Y0061793D01*
X0211251Y0061837D01*
X0211213Y0061883D01*
X0211177Y0061932D01*
X0211144Y0061983D01*
X0211115Y0062035D01*
X0211088Y0062090D01*
X0211065Y0062145D01*
X0211045Y0062202D01*
X0211029Y0062261D01*
X0211016Y0062320D01*
X0211007Y0062379D01*
X0211002Y0062440D01*
X0211000Y0062500D01*
X0211000Y0089500D01*
X0191000Y0102500D02*
X0191000Y0129500D01*
X0190998Y0129560D01*
X0190993Y0129621D01*
X0190984Y0129680D01*
X0190971Y0129739D01*
X0190955Y0129798D01*
X0190935Y0129855D01*
X0190912Y0129910D01*
X0190885Y0129965D01*
X0190856Y0130017D01*
X0190823Y0130068D01*
X0190787Y0130117D01*
X0190749Y0130163D01*
X0190707Y0130207D01*
X0190663Y0130249D01*
X0190617Y0130287D01*
X0190568Y0130323D01*
X0190517Y0130356D01*
X0190465Y0130385D01*
X0190410Y0130412D01*
X0190355Y0130435D01*
X0190298Y0130455D01*
X0190239Y0130471D01*
X0190180Y0130484D01*
X0190121Y0130493D01*
X0190060Y0130498D01*
X0190000Y0130500D01*
X0182000Y0130500D01*
X0181940Y0130498D01*
X0181879Y0130493D01*
X0181820Y0130484D01*
X0181761Y0130471D01*
X0181702Y0130455D01*
X0181645Y0130435D01*
X0181590Y0130412D01*
X0181535Y0130385D01*
X0181483Y0130356D01*
X0181432Y0130323D01*
X0181383Y0130287D01*
X0181337Y0130249D01*
X0181293Y0130207D01*
X0181251Y0130163D01*
X0181213Y0130117D01*
X0181177Y0130068D01*
X0181144Y0130017D01*
X0181115Y0129965D01*
X0181088Y0129910D01*
X0181065Y0129855D01*
X0181045Y0129798D01*
X0181029Y0129739D01*
X0181016Y0129680D01*
X0181007Y0129621D01*
X0181002Y0129560D01*
X0181000Y0129500D01*
X0181000Y0102500D01*
X0181002Y0102440D01*
X0181007Y0102379D01*
X0181016Y0102320D01*
X0181029Y0102261D01*
X0181045Y0102202D01*
X0181065Y0102145D01*
X0181088Y0102090D01*
X0181115Y0102035D01*
X0181144Y0101983D01*
X0181177Y0101932D01*
X0181213Y0101883D01*
X0181251Y0101837D01*
X0181293Y0101793D01*
X0181337Y0101751D01*
X0181383Y0101713D01*
X0181432Y0101677D01*
X0181483Y0101644D01*
X0181535Y0101615D01*
X0181590Y0101588D01*
X0181645Y0101565D01*
X0181702Y0101545D01*
X0181761Y0101529D01*
X0181820Y0101516D01*
X0181879Y0101507D01*
X0181940Y0101502D01*
X0182000Y0101500D01*
X0190000Y0101500D01*
X0190060Y0101502D01*
X0190121Y0101507D01*
X0190180Y0101516D01*
X0190239Y0101529D01*
X0190298Y0101545D01*
X0190355Y0101565D01*
X0190410Y0101588D01*
X0190465Y0101615D01*
X0190517Y0101644D01*
X0190568Y0101677D01*
X0190617Y0101713D01*
X0190663Y0101751D01*
X0190707Y0101793D01*
X0190749Y0101837D01*
X0190787Y0101883D01*
X0190823Y0101932D01*
X0190856Y0101983D01*
X0190885Y0102035D01*
X0190912Y0102090D01*
X0190935Y0102145D01*
X0190955Y0102202D01*
X0190971Y0102261D01*
X0190984Y0102320D01*
X0190993Y0102379D01*
X0190998Y0102440D01*
X0191000Y0102500D01*
X0186000Y0110000D02*
X0186000Y0114800D01*
X0186000Y0117300D02*
X0186000Y0122000D01*
X0170000Y0123500D02*
X0170000Y0125000D01*
X0169998Y0125060D01*
X0169993Y0125121D01*
X0169984Y0125180D01*
X0169971Y0125239D01*
X0169955Y0125298D01*
X0169935Y0125355D01*
X0169912Y0125410D01*
X0169885Y0125465D01*
X0169856Y0125517D01*
X0169823Y0125568D01*
X0169787Y0125617D01*
X0169749Y0125663D01*
X0169707Y0125707D01*
X0169663Y0125749D01*
X0169617Y0125787D01*
X0169568Y0125823D01*
X0169517Y0125856D01*
X0169465Y0125885D01*
X0169410Y0125912D01*
X0169355Y0125935D01*
X0169298Y0125955D01*
X0169239Y0125971D01*
X0169180Y0125984D01*
X0169121Y0125993D01*
X0169060Y0125998D01*
X0169000Y0126000D01*
X0163000Y0126000D01*
X0162940Y0125998D01*
X0162879Y0125993D01*
X0162820Y0125984D01*
X0162761Y0125971D01*
X0162702Y0125955D01*
X0162645Y0125935D01*
X0162590Y0125912D01*
X0162535Y0125885D01*
X0162483Y0125856D01*
X0162432Y0125823D01*
X0162383Y0125787D01*
X0162337Y0125749D01*
X0162293Y0125707D01*
X0162251Y0125663D01*
X0162213Y0125617D01*
X0162177Y0125568D01*
X0162144Y0125517D01*
X0162115Y0125465D01*
X0162088Y0125410D01*
X0162065Y0125355D01*
X0162045Y0125298D01*
X0162029Y0125239D01*
X0162016Y0125180D01*
X0162007Y0125121D01*
X0162002Y0125060D01*
X0162000Y0125000D01*
X0162000Y0123500D01*
X0162500Y0123000D01*
X0162500Y0109000D01*
X0162000Y0108500D01*
X0162000Y0107000D01*
X0162002Y0106940D01*
X0162007Y0106879D01*
X0162016Y0106820D01*
X0162029Y0106761D01*
X0162045Y0106702D01*
X0162065Y0106645D01*
X0162088Y0106590D01*
X0162115Y0106535D01*
X0162144Y0106483D01*
X0162177Y0106432D01*
X0162213Y0106383D01*
X0162251Y0106337D01*
X0162293Y0106293D01*
X0162337Y0106251D01*
X0162383Y0106213D01*
X0162432Y0106177D01*
X0162483Y0106144D01*
X0162535Y0106115D01*
X0162590Y0106088D01*
X0162645Y0106065D01*
X0162702Y0106045D01*
X0162761Y0106029D01*
X0162820Y0106016D01*
X0162879Y0106007D01*
X0162940Y0106002D01*
X0163000Y0106000D01*
X0169000Y0106000D01*
X0169060Y0106002D01*
X0169121Y0106007D01*
X0169180Y0106016D01*
X0169239Y0106029D01*
X0169298Y0106045D01*
X0169355Y0106065D01*
X0169410Y0106088D01*
X0169465Y0106115D01*
X0169517Y0106144D01*
X0169568Y0106177D01*
X0169617Y0106213D01*
X0169663Y0106251D01*
X0169707Y0106293D01*
X0169749Y0106337D01*
X0169787Y0106383D01*
X0169823Y0106432D01*
X0169856Y0106483D01*
X0169885Y0106535D01*
X0169912Y0106590D01*
X0169935Y0106645D01*
X0169955Y0106702D01*
X0169971Y0106761D01*
X0169984Y0106820D01*
X0169993Y0106879D01*
X0169998Y0106940D01*
X0170000Y0107000D01*
X0170000Y0108500D01*
X0169500Y0109000D01*
X0169500Y0123000D01*
X0170000Y0123500D01*
X0151000Y0124000D02*
X0151000Y0108000D01*
X0141000Y0108000D01*
X0141000Y0124000D01*
X0151000Y0124000D01*
X0148500Y0120000D02*
X0146000Y0116000D01*
X0148500Y0116000D01*
X0146000Y0116000D02*
X0146000Y0113500D01*
X0146000Y0116000D02*
X0143500Y0116000D01*
X0146000Y0116000D02*
X0143500Y0120000D01*
X0148500Y0120000D01*
X0146000Y0122000D02*
X0146000Y0116000D01*
X0130000Y0113500D02*
X0130000Y0112000D01*
X0129998Y0111940D01*
X0129993Y0111879D01*
X0129984Y0111820D01*
X0129971Y0111761D01*
X0129955Y0111702D01*
X0129935Y0111645D01*
X0129912Y0111590D01*
X0129885Y0111535D01*
X0129856Y0111483D01*
X0129823Y0111432D01*
X0129787Y0111383D01*
X0129749Y0111337D01*
X0129707Y0111293D01*
X0129663Y0111251D01*
X0129617Y0111213D01*
X0129568Y0111177D01*
X0129517Y0111144D01*
X0129465Y0111115D01*
X0129410Y0111088D01*
X0129355Y0111065D01*
X0129298Y0111045D01*
X0129239Y0111029D01*
X0129180Y0111016D01*
X0129121Y0111007D01*
X0129060Y0111002D01*
X0129000Y0111000D01*
X0123000Y0111000D01*
X0122940Y0111002D01*
X0122879Y0111007D01*
X0122820Y0111016D01*
X0122761Y0111029D01*
X0122702Y0111045D01*
X0122645Y0111065D01*
X0122590Y0111088D01*
X0122535Y0111115D01*
X0122483Y0111144D01*
X0122432Y0111177D01*
X0122383Y0111213D01*
X0122337Y0111251D01*
X0122293Y0111293D01*
X0122251Y0111337D01*
X0122213Y0111383D01*
X0122177Y0111432D01*
X0122144Y0111483D01*
X0122115Y0111535D01*
X0122088Y0111590D01*
X0122065Y0111645D01*
X0122045Y0111702D01*
X0122029Y0111761D01*
X0122016Y0111820D01*
X0122007Y0111879D01*
X0122002Y0111940D01*
X0122000Y0112000D01*
X0122000Y0113500D01*
X0122500Y0114000D01*
X0122500Y0128000D01*
X0122000Y0128500D01*
X0122000Y0130000D01*
X0122002Y0130060D01*
X0122007Y0130121D01*
X0122016Y0130180D01*
X0122029Y0130239D01*
X0122045Y0130298D01*
X0122065Y0130355D01*
X0122088Y0130410D01*
X0122115Y0130465D01*
X0122144Y0130517D01*
X0122177Y0130568D01*
X0122213Y0130617D01*
X0122251Y0130663D01*
X0122293Y0130707D01*
X0122337Y0130749D01*
X0122383Y0130787D01*
X0122432Y0130823D01*
X0122483Y0130856D01*
X0122535Y0130885D01*
X0122590Y0130912D01*
X0122645Y0130935D01*
X0122702Y0130955D01*
X0122761Y0130971D01*
X0122820Y0130984D01*
X0122879Y0130993D01*
X0122940Y0130998D01*
X0123000Y0131000D01*
X0129000Y0131000D01*
X0129060Y0130998D01*
X0129121Y0130993D01*
X0129180Y0130984D01*
X0129239Y0130971D01*
X0129298Y0130955D01*
X0129355Y0130935D01*
X0129410Y0130912D01*
X0129465Y0130885D01*
X0129517Y0130856D01*
X0129568Y0130823D01*
X0129617Y0130787D01*
X0129663Y0130749D01*
X0129707Y0130707D01*
X0129749Y0130663D01*
X0129787Y0130617D01*
X0129823Y0130568D01*
X0129856Y0130517D01*
X0129885Y0130465D01*
X0129912Y0130410D01*
X0129935Y0130355D01*
X0129955Y0130298D01*
X0129971Y0130239D01*
X0129984Y0130180D01*
X0129993Y0130121D01*
X0129998Y0130060D01*
X0130000Y0130000D01*
X0130000Y0128500D01*
X0129500Y0128000D01*
X0129500Y0114000D01*
X0130000Y0113500D01*
X0050700Y0051548D02*
X0050700Y0047993D01*
X0050700Y0049770D02*
X0044300Y0049770D01*
X0045722Y0047993D01*
X0048033Y0044916D02*
X0047500Y0044027D01*
X0046967Y0043138D01*
X0049634Y0042605D02*
X0049684Y0042693D01*
X0049732Y0042783D01*
X0049776Y0042874D01*
X0049817Y0042967D01*
X0049854Y0043061D01*
X0049888Y0043157D01*
X0049919Y0043254D01*
X0049946Y0043352D01*
X0049970Y0043451D01*
X0049990Y0043550D01*
X0050006Y0043650D01*
X0050019Y0043751D01*
X0050028Y0043852D01*
X0050033Y0043954D01*
X0050035Y0044055D01*
X0050033Y0044157D01*
X0050028Y0044258D01*
X0050018Y0044359D01*
X0050006Y0044460D01*
X0049989Y0044560D01*
X0050700Y0044027D02*
X0044300Y0044027D01*
X0045011Y0043493D02*
X0045025Y0043430D01*
X0045042Y0043368D01*
X0045063Y0043308D01*
X0045088Y0043248D01*
X0045116Y0043191D01*
X0045147Y0043135D01*
X0045182Y0043081D01*
X0045220Y0043029D01*
X0045261Y0042979D01*
X0045305Y0042933D01*
X0045352Y0042889D01*
X0045402Y0042848D01*
X0045453Y0042810D01*
X0045507Y0042775D01*
X0045563Y0042743D01*
X0045621Y0042715D01*
X0045681Y0042691D01*
X0045741Y0042670D01*
X0045803Y0042653D01*
X0045866Y0042639D01*
X0045930Y0042630D01*
X0045994Y0042624D01*
X0046058Y0042622D01*
X0046122Y0042624D01*
X0046186Y0042630D01*
X0046249Y0042640D01*
X0046312Y0042653D01*
X0046374Y0042671D01*
X0046435Y0042692D01*
X0046494Y0042717D01*
X0046552Y0042745D01*
X0046608Y0042777D01*
X0046662Y0042812D01*
X0046713Y0042850D01*
X0046762Y0042891D01*
X0046809Y0042935D01*
X0046853Y0042982D01*
X0046894Y0043032D01*
X0046932Y0043084D01*
X0046967Y0043138D01*
X0045011Y0043494D02*
X0044994Y0043594D01*
X0044982Y0043695D01*
X0044972Y0043796D01*
X0044967Y0043897D01*
X0044965Y0043999D01*
X0044967Y0044100D01*
X0044972Y0044202D01*
X0044981Y0044303D01*
X0044994Y0044404D01*
X0045010Y0044504D01*
X0045030Y0044603D01*
X0045054Y0044702D01*
X0045081Y0044800D01*
X0045112Y0044897D01*
X0045146Y0044993D01*
X0045183Y0045087D01*
X0045224Y0045180D01*
X0045268Y0045272D01*
X0045316Y0045361D01*
X0045366Y0045449D01*
X0048033Y0044915D02*
X0048068Y0044969D01*
X0048106Y0045021D01*
X0048147Y0045071D01*
X0048191Y0045118D01*
X0048238Y0045162D01*
X0048287Y0045203D01*
X0048338Y0045241D01*
X0048392Y0045276D01*
X0048448Y0045308D01*
X0048506Y0045336D01*
X0048565Y0045361D01*
X0048626Y0045382D01*
X0048688Y0045400D01*
X0048751Y0045413D01*
X0048814Y0045423D01*
X0048878Y0045429D01*
X0048942Y0045431D01*
X0049006Y0045429D01*
X0049070Y0045423D01*
X0049134Y0045414D01*
X0049197Y0045400D01*
X0049259Y0045383D01*
X0049319Y0045362D01*
X0049379Y0045338D01*
X0049437Y0045310D01*
X0049493Y0045278D01*
X0049547Y0045243D01*
X0049598Y0045205D01*
X0049648Y0045164D01*
X0049695Y0045120D01*
X0049739Y0045073D01*
X0049780Y0045024D01*
X0049818Y0044972D01*
X0049853Y0044918D01*
X0049884Y0044862D01*
X0049913Y0044805D01*
X0049937Y0044745D01*
X0049958Y0044685D01*
X0049975Y0044623D01*
X0049989Y0044560D01*
X0048922Y0039856D02*
X0044300Y0039856D01*
X0044300Y0036300D02*
X0048922Y0036300D01*
X0049005Y0036302D01*
X0049088Y0036308D01*
X0049171Y0036318D01*
X0049254Y0036331D01*
X0049335Y0036349D01*
X0049416Y0036370D01*
X0049495Y0036395D01*
X0049573Y0036424D01*
X0049650Y0036456D01*
X0049725Y0036492D01*
X0049799Y0036531D01*
X0049870Y0036574D01*
X0049940Y0036620D01*
X0050007Y0036670D01*
X0050072Y0036722D01*
X0050134Y0036777D01*
X0050194Y0036836D01*
X0050251Y0036897D01*
X0050305Y0036960D01*
X0050356Y0037026D01*
X0050403Y0037095D01*
X0050448Y0037165D01*
X0050489Y0037238D01*
X0050526Y0037312D01*
X0050561Y0037388D01*
X0050591Y0037466D01*
X0050618Y0037544D01*
X0050641Y0037625D01*
X0050661Y0037706D01*
X0050676Y0037788D01*
X0050688Y0037870D01*
X0050696Y0037953D01*
X0050700Y0038036D01*
X0050700Y0038120D01*
X0050696Y0038203D01*
X0050688Y0038286D01*
X0050676Y0038368D01*
X0050661Y0038450D01*
X0050641Y0038531D01*
X0050618Y0038612D01*
X0050591Y0038690D01*
X0050561Y0038768D01*
X0050526Y0038844D01*
X0050489Y0038918D01*
X0050448Y0038991D01*
X0050403Y0039061D01*
X0050356Y0039130D01*
X0050305Y0039196D01*
X0050251Y0039259D01*
X0050194Y0039320D01*
X0050134Y0039379D01*
X0050072Y0039434D01*
X0050007Y0039486D01*
X0049940Y0039536D01*
X0049870Y0039582D01*
X0049799Y0039625D01*
X0049725Y0039664D01*
X0049650Y0039700D01*
X0049573Y0039732D01*
X0049495Y0039761D01*
X0049416Y0039786D01*
X0049335Y0039807D01*
X0049254Y0039825D01*
X0049171Y0039838D01*
X0049088Y0039848D01*
X0049005Y0039854D01*
X0048922Y0039856D01*
X0206000Y0126000D02*
X0206003Y0126245D01*
X0206012Y0126491D01*
X0206027Y0126736D01*
X0206048Y0126980D01*
X0206075Y0127224D01*
X0206108Y0127467D01*
X0206147Y0127710D01*
X0206192Y0127951D01*
X0206243Y0128191D01*
X0206300Y0128430D01*
X0206362Y0128667D01*
X0206431Y0128903D01*
X0206505Y0129137D01*
X0206585Y0129369D01*
X0206670Y0129599D01*
X0206761Y0129827D01*
X0206858Y0130052D01*
X0206960Y0130276D01*
X0207068Y0130496D01*
X0207181Y0130714D01*
X0207299Y0130929D01*
X0207423Y0131141D01*
X0207551Y0131350D01*
X0207685Y0131556D01*
X0207824Y0131758D01*
X0207968Y0131957D01*
X0208117Y0132152D01*
X0208270Y0132344D01*
X0208428Y0132532D01*
X0208590Y0132716D01*
X0208758Y0132895D01*
X0208929Y0133071D01*
X0209105Y0133242D01*
X0209284Y0133410D01*
X0209468Y0133572D01*
X0209656Y0133730D01*
X0209848Y0133883D01*
X0210043Y0134032D01*
X0210242Y0134176D01*
X0210444Y0134315D01*
X0210650Y0134449D01*
X0210859Y0134577D01*
X0211071Y0134701D01*
X0211286Y0134819D01*
X0211504Y0134932D01*
X0211724Y0135040D01*
X0211948Y0135142D01*
X0212173Y0135239D01*
X0212401Y0135330D01*
X0212631Y0135415D01*
X0212863Y0135495D01*
X0213097Y0135569D01*
X0213333Y0135638D01*
X0213570Y0135700D01*
X0213809Y0135757D01*
X0214049Y0135808D01*
X0214290Y0135853D01*
X0214533Y0135892D01*
X0214776Y0135925D01*
X0215020Y0135952D01*
X0215264Y0135973D01*
X0215509Y0135988D01*
X0215755Y0135997D01*
X0216000Y0136000D01*
X0216245Y0135997D01*
X0216491Y0135988D01*
X0216736Y0135973D01*
X0216980Y0135952D01*
X0217224Y0135925D01*
X0217467Y0135892D01*
X0217710Y0135853D01*
X0217951Y0135808D01*
X0218191Y0135757D01*
X0218430Y0135700D01*
X0218667Y0135638D01*
X0218903Y0135569D01*
X0219137Y0135495D01*
X0219369Y0135415D01*
X0219599Y0135330D01*
X0219827Y0135239D01*
X0220052Y0135142D01*
X0220276Y0135040D01*
X0220496Y0134932D01*
X0220714Y0134819D01*
X0220929Y0134701D01*
X0221141Y0134577D01*
X0221350Y0134449D01*
X0221556Y0134315D01*
X0221758Y0134176D01*
X0221957Y0134032D01*
X0222152Y0133883D01*
X0222344Y0133730D01*
X0222532Y0133572D01*
X0222716Y0133410D01*
X0222895Y0133242D01*
X0223071Y0133071D01*
X0223242Y0132895D01*
X0223410Y0132716D01*
X0223572Y0132532D01*
X0223730Y0132344D01*
X0223883Y0132152D01*
X0224032Y0131957D01*
X0224176Y0131758D01*
X0224315Y0131556D01*
X0224449Y0131350D01*
X0224577Y0131141D01*
X0224701Y0130929D01*
X0224819Y0130714D01*
X0224932Y0130496D01*
X0225040Y0130276D01*
X0225142Y0130052D01*
X0225239Y0129827D01*
X0225330Y0129599D01*
X0225415Y0129369D01*
X0225495Y0129137D01*
X0225569Y0128903D01*
X0225638Y0128667D01*
X0225700Y0128430D01*
X0225757Y0128191D01*
X0225808Y0127951D01*
X0225853Y0127710D01*
X0225892Y0127467D01*
X0225925Y0127224D01*
X0225952Y0126980D01*
X0225973Y0126736D01*
X0225988Y0126491D01*
X0225997Y0126245D01*
X0226000Y0126000D01*
X0225997Y0125755D01*
X0225988Y0125509D01*
X0225973Y0125264D01*
X0225952Y0125020D01*
X0225925Y0124776D01*
X0225892Y0124533D01*
X0225853Y0124290D01*
X0225808Y0124049D01*
X0225757Y0123809D01*
X0225700Y0123570D01*
X0225638Y0123333D01*
X0225569Y0123097D01*
X0225495Y0122863D01*
X0225415Y0122631D01*
X0225330Y0122401D01*
X0225239Y0122173D01*
X0225142Y0121948D01*
X0225040Y0121724D01*
X0224932Y0121504D01*
X0224819Y0121286D01*
X0224701Y0121071D01*
X0224577Y0120859D01*
X0224449Y0120650D01*
X0224315Y0120444D01*
X0224176Y0120242D01*
X0224032Y0120043D01*
X0223883Y0119848D01*
X0223730Y0119656D01*
X0223572Y0119468D01*
X0223410Y0119284D01*
X0223242Y0119105D01*
X0223071Y0118929D01*
X0222895Y0118758D01*
X0222716Y0118590D01*
X0222532Y0118428D01*
X0222344Y0118270D01*
X0222152Y0118117D01*
X0221957Y0117968D01*
X0221758Y0117824D01*
X0221556Y0117685D01*
X0221350Y0117551D01*
X0221141Y0117423D01*
X0220929Y0117299D01*
X0220714Y0117181D01*
X0220496Y0117068D01*
X0220276Y0116960D01*
X0220052Y0116858D01*
X0219827Y0116761D01*
X0219599Y0116670D01*
X0219369Y0116585D01*
X0219137Y0116505D01*
X0218903Y0116431D01*
X0218667Y0116362D01*
X0218430Y0116300D01*
X0218191Y0116243D01*
X0217951Y0116192D01*
X0217710Y0116147D01*
X0217467Y0116108D01*
X0217224Y0116075D01*
X0216980Y0116048D01*
X0216736Y0116027D01*
X0216491Y0116012D01*
X0216245Y0116003D01*
X0216000Y0116000D01*
X0215755Y0116003D01*
X0215509Y0116012D01*
X0215264Y0116027D01*
X0215020Y0116048D01*
X0214776Y0116075D01*
X0214533Y0116108D01*
X0214290Y0116147D01*
X0214049Y0116192D01*
X0213809Y0116243D01*
X0213570Y0116300D01*
X0213333Y0116362D01*
X0213097Y0116431D01*
X0212863Y0116505D01*
X0212631Y0116585D01*
X0212401Y0116670D01*
X0212173Y0116761D01*
X0211948Y0116858D01*
X0211724Y0116960D01*
X0211504Y0117068D01*
X0211286Y0117181D01*
X0211071Y0117299D01*
X0210859Y0117423D01*
X0210650Y0117551D01*
X0210444Y0117685D01*
X0210242Y0117824D01*
X0210043Y0117968D01*
X0209848Y0118117D01*
X0209656Y0118270D01*
X0209468Y0118428D01*
X0209284Y0118590D01*
X0209105Y0118758D01*
X0208929Y0118929D01*
X0208758Y0119105D01*
X0208590Y0119284D01*
X0208428Y0119468D01*
X0208270Y0119656D01*
X0208117Y0119848D01*
X0207968Y0120043D01*
X0207824Y0120242D01*
X0207685Y0120444D01*
X0207551Y0120650D01*
X0207423Y0120859D01*
X0207299Y0121071D01*
X0207181Y0121286D01*
X0207068Y0121504D01*
X0206960Y0121724D01*
X0206858Y0121948D01*
X0206761Y0122173D01*
X0206670Y0122401D01*
X0206585Y0122631D01*
X0206505Y0122863D01*
X0206431Y0123097D01*
X0206362Y0123333D01*
X0206300Y0123570D01*
X0206243Y0123809D01*
X0206192Y0124049D01*
X0206147Y0124290D01*
X0206108Y0124533D01*
X0206075Y0124776D01*
X0206048Y0125020D01*
X0206027Y0125264D01*
X0206012Y0125509D01*
X0206003Y0125755D01*
X0206000Y0126000D01*
X0146079Y0205331D02*
X0125921Y0205331D01*
D13*
X0117971Y0178880D02*
X0117971Y0145415D01*
X0163640Y0145415D01*
X0163640Y0178880D01*
X0117971Y0178880D01*
X0139250Y0115400D02*
X0139250Y0112900D01*
X0139250Y0114150D02*
X0134750Y0114150D01*
X0135750Y0112900D01*
X0136000Y0110750D02*
X0138000Y0110750D01*
X0138068Y0110748D01*
X0138135Y0110743D01*
X0138202Y0110734D01*
X0138269Y0110721D01*
X0138334Y0110704D01*
X0138399Y0110685D01*
X0138463Y0110661D01*
X0138525Y0110634D01*
X0138586Y0110604D01*
X0138644Y0110571D01*
X0138701Y0110535D01*
X0138756Y0110495D01*
X0138809Y0110453D01*
X0138860Y0110407D01*
X0138907Y0110360D01*
X0138953Y0110309D01*
X0138995Y0110256D01*
X0139035Y0110201D01*
X0139071Y0110144D01*
X0139104Y0110086D01*
X0139134Y0110025D01*
X0139161Y0109963D01*
X0139185Y0109899D01*
X0139204Y0109834D01*
X0139221Y0109769D01*
X0139234Y0109702D01*
X0139243Y0109635D01*
X0139248Y0109568D01*
X0139250Y0109500D01*
X0139250Y0108250D01*
X0134750Y0108250D01*
X0134750Y0109500D01*
X0134752Y0109568D01*
X0134757Y0109635D01*
X0134766Y0109702D01*
X0134779Y0109769D01*
X0134796Y0109834D01*
X0134815Y0109899D01*
X0134839Y0109963D01*
X0134866Y0110025D01*
X0134896Y0110086D01*
X0134929Y0110144D01*
X0134965Y0110201D01*
X0135005Y0110256D01*
X0135047Y0110309D01*
X0135093Y0110360D01*
X0135140Y0110407D01*
X0135191Y0110453D01*
X0135244Y0110495D01*
X0135299Y0110535D01*
X0135356Y0110571D01*
X0135414Y0110604D01*
X0135475Y0110634D01*
X0135537Y0110661D01*
X0135601Y0110685D01*
X0135666Y0110704D01*
X0135731Y0110721D01*
X0135798Y0110734D01*
X0135865Y0110743D01*
X0135932Y0110748D01*
X0136000Y0110750D01*
X0126000Y0078992D02*
X0126000Y0016000D01*
X0188992Y0016000D01*
X0188992Y0078992D01*
X0126000Y0078992D01*
X0174750Y0103750D02*
X0174750Y0104750D01*
X0174750Y0103750D02*
X0174752Y0103690D01*
X0174757Y0103629D01*
X0174766Y0103570D01*
X0174779Y0103511D01*
X0174795Y0103452D01*
X0174815Y0103395D01*
X0174838Y0103340D01*
X0174865Y0103285D01*
X0174894Y0103233D01*
X0174927Y0103182D01*
X0174963Y0103133D01*
X0175001Y0103087D01*
X0175043Y0103043D01*
X0175087Y0103001D01*
X0175133Y0102963D01*
X0175182Y0102927D01*
X0175233Y0102894D01*
X0175285Y0102865D01*
X0175340Y0102838D01*
X0175395Y0102815D01*
X0175452Y0102795D01*
X0175511Y0102779D01*
X0175570Y0102766D01*
X0175629Y0102757D01*
X0175690Y0102752D01*
X0175750Y0102750D01*
X0178250Y0102750D01*
X0178310Y0102752D01*
X0178371Y0102757D01*
X0178430Y0102766D01*
X0178489Y0102779D01*
X0178548Y0102795D01*
X0178605Y0102815D01*
X0178660Y0102838D01*
X0178715Y0102865D01*
X0178767Y0102894D01*
X0178818Y0102927D01*
X0178867Y0102963D01*
X0178913Y0103001D01*
X0178957Y0103043D01*
X0178999Y0103087D01*
X0179037Y0103133D01*
X0179073Y0103182D01*
X0179106Y0103233D01*
X0179135Y0103285D01*
X0179162Y0103340D01*
X0179185Y0103395D01*
X0179205Y0103452D01*
X0179221Y0103511D01*
X0179234Y0103570D01*
X0179243Y0103629D01*
X0179248Y0103690D01*
X0179250Y0103750D01*
X0179250Y0104750D01*
X0179250Y0106515D02*
X0179250Y0109015D01*
X0179250Y0107765D02*
X0174750Y0107765D01*
X0175750Y0106515D01*
X0209150Y0138750D02*
X0213650Y0138750D01*
X0213650Y0140750D01*
X0213650Y0142650D02*
X0209150Y0142650D01*
X0209150Y0144650D01*
X0209150Y0146540D02*
X0209150Y0147790D01*
X0209152Y0147858D01*
X0209157Y0147925D01*
X0209166Y0147992D01*
X0209179Y0148059D01*
X0209196Y0148124D01*
X0209215Y0148189D01*
X0209239Y0148253D01*
X0209266Y0148315D01*
X0209296Y0148376D01*
X0209329Y0148434D01*
X0209365Y0148491D01*
X0209405Y0148546D01*
X0209447Y0148599D01*
X0209493Y0148650D01*
X0209540Y0148697D01*
X0209591Y0148743D01*
X0209644Y0148785D01*
X0209699Y0148825D01*
X0209756Y0148861D01*
X0209814Y0148894D01*
X0209875Y0148924D01*
X0209937Y0148951D01*
X0210001Y0148975D01*
X0210066Y0148994D01*
X0210131Y0149011D01*
X0210198Y0149024D01*
X0210265Y0149033D01*
X0210332Y0149038D01*
X0210400Y0149040D01*
X0212400Y0149040D01*
X0212468Y0149038D01*
X0212535Y0149033D01*
X0212602Y0149024D01*
X0212669Y0149011D01*
X0212734Y0148994D01*
X0212799Y0148975D01*
X0212863Y0148951D01*
X0212925Y0148924D01*
X0212986Y0148894D01*
X0213044Y0148861D01*
X0213101Y0148825D01*
X0213156Y0148785D01*
X0213209Y0148743D01*
X0213260Y0148697D01*
X0213307Y0148650D01*
X0213353Y0148599D01*
X0213395Y0148546D01*
X0213435Y0148491D01*
X0213471Y0148434D01*
X0213504Y0148376D01*
X0213534Y0148315D01*
X0213561Y0148253D01*
X0213585Y0148189D01*
X0213604Y0148124D01*
X0213621Y0148059D01*
X0213634Y0147992D01*
X0213643Y0147925D01*
X0213648Y0147858D01*
X0213650Y0147790D01*
X0213650Y0146540D01*
X0209150Y0146540D01*
X0211150Y0144150D02*
X0211150Y0142650D01*
X0213650Y0142650D02*
X0213650Y0144650D01*
X0213650Y0151190D02*
X0213650Y0153690D01*
X0213650Y0152440D02*
X0209150Y0152440D01*
X0210150Y0151190D01*
X0227250Y0089250D02*
X0227250Y0086750D01*
X0224750Y0088875D01*
X0222750Y0088125D02*
X0222752Y0088052D01*
X0222757Y0087980D01*
X0222766Y0087908D01*
X0222779Y0087836D01*
X0222795Y0087765D01*
X0222815Y0087695D01*
X0222839Y0087627D01*
X0222865Y0087559D01*
X0222896Y0087493D01*
X0222929Y0087428D01*
X0222966Y0087366D01*
X0223005Y0087305D01*
X0223048Y0087246D01*
X0223094Y0087189D01*
X0223142Y0087135D01*
X0223193Y0087084D01*
X0223247Y0087034D01*
X0223303Y0086988D01*
X0223361Y0086945D01*
X0223422Y0086904D01*
X0223484Y0086867D01*
X0223548Y0086833D01*
X0223614Y0086802D01*
X0223681Y0086774D01*
X0223750Y0086750D01*
X0224750Y0088875D02*
X0224704Y0088921D01*
X0224655Y0088965D01*
X0224604Y0089005D01*
X0224551Y0089043D01*
X0224496Y0089078D01*
X0224439Y0089110D01*
X0224381Y0089139D01*
X0224321Y0089165D01*
X0224259Y0089187D01*
X0224197Y0089206D01*
X0224134Y0089222D01*
X0224070Y0089234D01*
X0224005Y0089243D01*
X0223940Y0089248D01*
X0223875Y0089250D01*
X0223810Y0089248D01*
X0223744Y0089242D01*
X0223680Y0089233D01*
X0223616Y0089220D01*
X0223552Y0089203D01*
X0223490Y0089182D01*
X0223429Y0089158D01*
X0223370Y0089130D01*
X0223313Y0089099D01*
X0223257Y0089065D01*
X0223203Y0089027D01*
X0223152Y0088987D01*
X0223103Y0088943D01*
X0223057Y0088897D01*
X0223013Y0088848D01*
X0222973Y0088797D01*
X0222935Y0088743D01*
X0222901Y0088688D01*
X0222870Y0088630D01*
X0222842Y0088571D01*
X0222818Y0088510D01*
X0222797Y0088448D01*
X0222780Y0088384D01*
X0222767Y0088320D01*
X0222758Y0088256D01*
X0222752Y0088190D01*
X0222750Y0088125D01*
X0222750Y0084985D02*
X0222750Y0083985D01*
X0222752Y0083925D01*
X0222757Y0083864D01*
X0222766Y0083805D01*
X0222779Y0083746D01*
X0222795Y0083687D01*
X0222815Y0083630D01*
X0222838Y0083575D01*
X0222865Y0083520D01*
X0222894Y0083468D01*
X0222927Y0083417D01*
X0222963Y0083368D01*
X0223001Y0083322D01*
X0223043Y0083278D01*
X0223087Y0083236D01*
X0223133Y0083198D01*
X0223182Y0083162D01*
X0223233Y0083129D01*
X0223285Y0083100D01*
X0223340Y0083073D01*
X0223395Y0083050D01*
X0223452Y0083030D01*
X0223511Y0083014D01*
X0223570Y0083001D01*
X0223629Y0082992D01*
X0223690Y0082987D01*
X0223750Y0082985D01*
X0226250Y0082985D01*
X0226310Y0082987D01*
X0226371Y0082992D01*
X0226430Y0083001D01*
X0226489Y0083014D01*
X0226548Y0083030D01*
X0226605Y0083050D01*
X0226660Y0083073D01*
X0226715Y0083100D01*
X0226767Y0083129D01*
X0226818Y0083162D01*
X0226867Y0083198D01*
X0226913Y0083236D01*
X0226957Y0083278D01*
X0226999Y0083322D01*
X0227037Y0083368D01*
X0227073Y0083417D01*
X0227106Y0083468D01*
X0227135Y0083520D01*
X0227162Y0083575D01*
X0227185Y0083630D01*
X0227205Y0083687D01*
X0227221Y0083746D01*
X0227234Y0083805D01*
X0227243Y0083864D01*
X0227248Y0083925D01*
X0227250Y0083985D01*
X0227250Y0084985D01*
D14*
X0146000Y0110500D03*
D15*
X0146000Y0104250D03*
X0146000Y0127750D03*
D16*
X0176984Y0153835D02*
X0185000Y0157500D01*
X0185000Y0191000D01*
X0217000Y0191000D01*
X0217000Y0157500D01*
X0225016Y0153835D01*
X0225016Y0195173D01*
X0217000Y0191000D01*
X0225016Y0195173D02*
X0176984Y0195173D01*
X0185000Y0191000D01*
X0176984Y0195173D02*
X0176984Y0153835D01*
X0225016Y0153835D01*
X0217000Y0157500D02*
X0185000Y0157500D01*
X0208500Y0136000D02*
X0223500Y0136000D01*
X0225016Y0195173D02*
X0225016Y0208165D01*
X0176984Y0208165D01*
X0176984Y0195173D01*
D17*
X0146512Y0195291D02*
X0146512Y0206709D01*
X0125488Y0206709D01*
X0125488Y0195291D01*
X0146512Y0195291D01*
X0208500Y0136000D02*
X0208257Y0135813D01*
X0208019Y0135621D01*
X0207786Y0135422D01*
X0207558Y0135218D01*
X0207335Y0135009D01*
X0207117Y0134794D01*
X0206904Y0134574D01*
X0206697Y0134349D01*
X0206495Y0134118D01*
X0206299Y0133883D01*
X0206109Y0133643D01*
X0205925Y0133399D01*
X0205747Y0133150D01*
X0205575Y0132896D01*
X0205409Y0132639D01*
X0205249Y0132378D01*
X0205096Y0132113D01*
X0204950Y0131844D01*
X0204810Y0131571D01*
X0204677Y0131296D01*
X0204551Y0131017D01*
X0204431Y0130735D01*
X0204319Y0130450D01*
X0204214Y0130163D01*
X0204115Y0129873D01*
X0204024Y0129581D01*
X0203940Y0129286D01*
X0203863Y0128990D01*
X0203793Y0128692D01*
X0203731Y0128392D01*
X0203676Y0128091D01*
X0203629Y0127789D01*
X0203589Y0127485D01*
X0203556Y0127181D01*
X0203531Y0126876D01*
X0203513Y0126570D01*
X0203503Y0126264D01*
X0203500Y0125958D01*
X0203505Y0125652D01*
X0203517Y0125346D01*
X0203537Y0125040D01*
X0203564Y0124736D01*
X0203599Y0124431D01*
X0203641Y0124128D01*
X0203690Y0123826D01*
X0203747Y0123525D01*
X0203812Y0123226D01*
X0203883Y0122928D01*
X0203962Y0122633D01*
X0204048Y0122339D01*
X0204141Y0122047D01*
X0204242Y0121758D01*
X0204349Y0121471D01*
X0204464Y0121187D01*
X0204585Y0120906D01*
X0204713Y0120628D01*
X0204848Y0120353D01*
X0204990Y0120082D01*
X0205138Y0119814D01*
X0205293Y0119550D01*
X0205454Y0119290D01*
X0205621Y0119034D01*
X0205795Y0118781D01*
X0205975Y0118534D01*
X0206161Y0118290D01*
X0206352Y0118052D01*
X0206550Y0117818D01*
X0206753Y0117589D01*
X0206962Y0117365D01*
X0207176Y0117146D01*
X0207396Y0116933D01*
X0207620Y0116725D01*
X0207850Y0116522D01*
X0208084Y0116326D01*
X0208324Y0116135D01*
X0208567Y0115950D01*
X0208816Y0115771D01*
X0209068Y0115598D01*
X0209325Y0115431D01*
X0209586Y0115271D01*
X0209851Y0115117D01*
X0210119Y0114970D01*
X0210391Y0114829D01*
X0210666Y0114695D01*
X0210945Y0114568D01*
X0211226Y0114447D01*
X0211511Y0114334D01*
X0211798Y0114228D01*
X0212087Y0114128D01*
X0212379Y0114036D01*
X0212673Y0113951D01*
X0212969Y0113873D01*
X0213267Y0113802D01*
X0213567Y0113739D01*
X0213868Y0113683D01*
X0214170Y0113635D01*
X0214473Y0113594D01*
X0214777Y0113560D01*
X0215082Y0113534D01*
X0215388Y0113515D01*
X0215694Y0113504D01*
X0216000Y0113500D01*
X0216306Y0113504D01*
X0216612Y0113515D01*
X0216918Y0113534D01*
X0217223Y0113560D01*
X0217527Y0113594D01*
X0217830Y0113635D01*
X0218132Y0113683D01*
X0218433Y0113739D01*
X0218733Y0113802D01*
X0219031Y0113873D01*
X0219327Y0113951D01*
X0219621Y0114036D01*
X0219913Y0114128D01*
X0220202Y0114228D01*
X0220489Y0114334D01*
X0220774Y0114447D01*
X0221055Y0114568D01*
X0221334Y0114695D01*
X0221609Y0114829D01*
X0221881Y0114970D01*
X0222149Y0115117D01*
X0222414Y0115271D01*
X0222675Y0115431D01*
X0222932Y0115598D01*
X0223184Y0115771D01*
X0223433Y0115950D01*
X0223676Y0116135D01*
X0223916Y0116326D01*
X0224150Y0116522D01*
X0224380Y0116725D01*
X0224604Y0116933D01*
X0224824Y0117146D01*
X0225038Y0117365D01*
X0225247Y0117589D01*
X0225450Y0117818D01*
X0225648Y0118052D01*
X0225839Y0118290D01*
X0226025Y0118534D01*
X0226205Y0118781D01*
X0226379Y0119034D01*
X0226546Y0119290D01*
X0226707Y0119550D01*
X0226862Y0119814D01*
X0227010Y0120082D01*
X0227152Y0120353D01*
X0227287Y0120628D01*
X0227415Y0120906D01*
X0227536Y0121187D01*
X0227651Y0121471D01*
X0227758Y0121758D01*
X0227859Y0122047D01*
X0227952Y0122339D01*
X0228038Y0122633D01*
X0228117Y0122928D01*
X0228188Y0123226D01*
X0228253Y0123525D01*
X0228310Y0123826D01*
X0228359Y0124128D01*
X0228401Y0124431D01*
X0228436Y0124736D01*
X0228463Y0125040D01*
X0228483Y0125346D01*
X0228495Y0125652D01*
X0228500Y0125958D01*
X0228497Y0126264D01*
X0228487Y0126570D01*
X0228469Y0126876D01*
X0228444Y0127181D01*
X0228411Y0127485D01*
X0228371Y0127789D01*
X0228324Y0128091D01*
X0228269Y0128392D01*
X0228207Y0128692D01*
X0228137Y0128990D01*
X0228060Y0129286D01*
X0227976Y0129581D01*
X0227885Y0129873D01*
X0227786Y0130163D01*
X0227681Y0130450D01*
X0227569Y0130735D01*
X0227449Y0131017D01*
X0227323Y0131296D01*
X0227190Y0131571D01*
X0227050Y0131844D01*
X0226904Y0132113D01*
X0226751Y0132378D01*
X0226591Y0132639D01*
X0226425Y0132896D01*
X0226253Y0133150D01*
X0226075Y0133399D01*
X0225891Y0133643D01*
X0225701Y0133883D01*
X0225505Y0134118D01*
X0225303Y0134349D01*
X0225096Y0134574D01*
X0224883Y0134794D01*
X0224665Y0135009D01*
X0224442Y0135218D01*
X0224214Y0135422D01*
X0223981Y0135621D01*
X0223743Y0135813D01*
X0223500Y0136000D01*
D18*
X0208117Y0179533D02*
X0208883Y0180939D01*
X0210800Y0180428D02*
X0210798Y0180338D01*
X0210793Y0180249D01*
X0210783Y0180160D01*
X0210770Y0180071D01*
X0210754Y0179983D01*
X0210733Y0179895D01*
X0210709Y0179809D01*
X0210682Y0179723D01*
X0210651Y0179639D01*
X0210616Y0179556D01*
X0210578Y0179475D01*
X0210537Y0179395D01*
X0210493Y0179318D01*
X0210445Y0179242D01*
X0210394Y0179168D01*
X0210340Y0179096D01*
X0210283Y0179027D01*
X0210224Y0178959D01*
X0210161Y0178895D01*
X0208884Y0180939D02*
X0208918Y0180993D01*
X0208955Y0181044D01*
X0208995Y0181093D01*
X0209038Y0181140D01*
X0209084Y0181183D01*
X0209132Y0181224D01*
X0209183Y0181262D01*
X0209236Y0181297D01*
X0209291Y0181329D01*
X0209348Y0181357D01*
X0209406Y0181381D01*
X0209466Y0181402D01*
X0209527Y0181419D01*
X0209589Y0181433D01*
X0209652Y0181442D01*
X0209715Y0181448D01*
X0209778Y0181450D01*
X0209840Y0181448D01*
X0209901Y0181443D01*
X0209962Y0181433D01*
X0210023Y0181420D01*
X0210082Y0181404D01*
X0210140Y0181384D01*
X0210197Y0181360D01*
X0210253Y0181333D01*
X0210307Y0181303D01*
X0210359Y0181269D01*
X0210408Y0181233D01*
X0210456Y0181193D01*
X0210501Y0181151D01*
X0210543Y0181106D01*
X0210583Y0181058D01*
X0210619Y0181009D01*
X0210653Y0180957D01*
X0210683Y0180903D01*
X0210710Y0180847D01*
X0210734Y0180790D01*
X0210754Y0180732D01*
X0210770Y0180673D01*
X0210783Y0180612D01*
X0210793Y0180551D01*
X0210798Y0180490D01*
X0210800Y0180428D01*
X0206583Y0181194D02*
X0206535Y0181127D01*
X0206490Y0181059D01*
X0206448Y0180988D01*
X0206410Y0180915D01*
X0206374Y0180841D01*
X0206341Y0180766D01*
X0206312Y0180689D01*
X0206286Y0180611D01*
X0206263Y0180532D01*
X0206244Y0180452D01*
X0206228Y0180371D01*
X0206216Y0180290D01*
X0206207Y0180208D01*
X0206202Y0180126D01*
X0206200Y0180044D01*
X0206202Y0179982D01*
X0206207Y0179921D01*
X0206217Y0179860D01*
X0206230Y0179799D01*
X0206246Y0179740D01*
X0206266Y0179682D01*
X0206290Y0179625D01*
X0206317Y0179569D01*
X0206347Y0179515D01*
X0206381Y0179463D01*
X0206417Y0179414D01*
X0206457Y0179366D01*
X0206499Y0179321D01*
X0206544Y0179279D01*
X0206592Y0179239D01*
X0206641Y0179203D01*
X0206693Y0179169D01*
X0206747Y0179139D01*
X0206803Y0179112D01*
X0206860Y0179088D01*
X0206918Y0179068D01*
X0206977Y0179052D01*
X0207038Y0179039D01*
X0207099Y0179029D01*
X0207160Y0179024D01*
X0207222Y0179022D01*
X0207285Y0179024D01*
X0207348Y0179030D01*
X0207411Y0179039D01*
X0207473Y0179053D01*
X0207534Y0179070D01*
X0207594Y0179091D01*
X0207652Y0179115D01*
X0207709Y0179143D01*
X0207764Y0179175D01*
X0207817Y0179210D01*
X0207868Y0179248D01*
X0207916Y0179289D01*
X0207962Y0179332D01*
X0208005Y0179379D01*
X0208045Y0179428D01*
X0208082Y0179479D01*
X0208116Y0179533D01*
X0207222Y0183244D02*
X0206200Y0184522D01*
X0210800Y0184522D01*
X0210800Y0183244D02*
X0210800Y0185800D01*
X0158481Y0142865D02*
X0156947Y0142865D01*
X0158481Y0142865D02*
X0158544Y0142863D01*
X0158607Y0142857D01*
X0158669Y0142848D01*
X0158730Y0142834D01*
X0158791Y0142817D01*
X0158850Y0142796D01*
X0158908Y0142771D01*
X0158965Y0142743D01*
X0159019Y0142712D01*
X0159071Y0142677D01*
X0159122Y0142639D01*
X0159170Y0142598D01*
X0159215Y0142554D01*
X0159257Y0142508D01*
X0159297Y0142459D01*
X0159333Y0142408D01*
X0159366Y0142354D01*
X0159396Y0142299D01*
X0159422Y0142241D01*
X0159445Y0142183D01*
X0159464Y0142123D01*
X0159479Y0142062D01*
X0159491Y0142000D01*
X0159499Y0141937D01*
X0159503Y0141874D01*
X0159503Y0141812D01*
X0159499Y0141749D01*
X0159491Y0141686D01*
X0159479Y0141624D01*
X0159464Y0141563D01*
X0159445Y0141503D01*
X0159422Y0141445D01*
X0159396Y0141387D01*
X0159366Y0141332D01*
X0159333Y0141278D01*
X0159297Y0141227D01*
X0159257Y0141178D01*
X0159215Y0141132D01*
X0159170Y0141088D01*
X0159122Y0141047D01*
X0159071Y0141009D01*
X0159019Y0140974D01*
X0158965Y0140943D01*
X0158908Y0140915D01*
X0158850Y0140890D01*
X0158791Y0140869D01*
X0158730Y0140852D01*
X0158669Y0140838D01*
X0158607Y0140829D01*
X0158544Y0140823D01*
X0158481Y0140821D01*
X0157459Y0140821D01*
X0158225Y0140821D02*
X0158295Y0140819D01*
X0158366Y0140813D01*
X0158435Y0140804D01*
X0158504Y0140790D01*
X0158573Y0140773D01*
X0158640Y0140752D01*
X0158706Y0140727D01*
X0158770Y0140699D01*
X0158833Y0140667D01*
X0158894Y0140632D01*
X0158953Y0140593D01*
X0159010Y0140552D01*
X0159064Y0140507D01*
X0159116Y0140459D01*
X0159165Y0140409D01*
X0159212Y0140355D01*
X0159255Y0140300D01*
X0159295Y0140242D01*
X0159332Y0140182D01*
X0159365Y0140120D01*
X0159395Y0140056D01*
X0159422Y0139991D01*
X0159445Y0139925D01*
X0159464Y0139857D01*
X0159479Y0139788D01*
X0159491Y0139719D01*
X0159499Y0139649D01*
X0159503Y0139578D01*
X0159503Y0139508D01*
X0159499Y0139437D01*
X0159491Y0139367D01*
X0159479Y0139298D01*
X0159464Y0139229D01*
X0159445Y0139161D01*
X0159422Y0139095D01*
X0159395Y0139030D01*
X0159365Y0138966D01*
X0159332Y0138904D01*
X0159295Y0138844D01*
X0159255Y0138786D01*
X0159212Y0138731D01*
X0159165Y0138677D01*
X0159116Y0138627D01*
X0159064Y0138579D01*
X0159010Y0138534D01*
X0158953Y0138493D01*
X0158894Y0138454D01*
X0158833Y0138419D01*
X0158770Y0138387D01*
X0158706Y0138359D01*
X0158640Y0138334D01*
X0158573Y0138313D01*
X0158504Y0138296D01*
X0158435Y0138282D01*
X0158366Y0138273D01*
X0158295Y0138267D01*
X0158225Y0138265D01*
X0156947Y0138265D01*
X0154853Y0139543D02*
X0154853Y0142865D01*
X0152297Y0142865D02*
X0152297Y0139543D01*
X0152299Y0139473D01*
X0152305Y0139402D01*
X0152314Y0139333D01*
X0152328Y0139264D01*
X0152345Y0139195D01*
X0152366Y0139128D01*
X0152391Y0139062D01*
X0152419Y0138998D01*
X0152451Y0138935D01*
X0152486Y0138874D01*
X0152525Y0138815D01*
X0152566Y0138758D01*
X0152611Y0138704D01*
X0152659Y0138652D01*
X0152709Y0138603D01*
X0152763Y0138556D01*
X0152818Y0138513D01*
X0152876Y0138473D01*
X0152936Y0138436D01*
X0152998Y0138403D01*
X0153062Y0138373D01*
X0153127Y0138346D01*
X0153193Y0138323D01*
X0153261Y0138304D01*
X0153330Y0138289D01*
X0153399Y0138277D01*
X0153469Y0138269D01*
X0153540Y0138265D01*
X0153610Y0138265D01*
X0153681Y0138269D01*
X0153751Y0138277D01*
X0153820Y0138289D01*
X0153889Y0138304D01*
X0153957Y0138323D01*
X0154023Y0138346D01*
X0154088Y0138373D01*
X0154152Y0138403D01*
X0154214Y0138436D01*
X0154274Y0138473D01*
X0154332Y0138513D01*
X0154387Y0138556D01*
X0154441Y0138603D01*
X0154491Y0138652D01*
X0154539Y0138704D01*
X0154584Y0138758D01*
X0154625Y0138815D01*
X0154664Y0138874D01*
X0154699Y0138935D01*
X0154731Y0138998D01*
X0154759Y0139062D01*
X0154784Y0139128D01*
X0154805Y0139195D01*
X0154822Y0139264D01*
X0154836Y0139333D01*
X0154845Y0139402D01*
X0154851Y0139473D01*
X0154853Y0139543D01*
X0134800Y0130800D02*
X0134800Y0128856D01*
X0134800Y0129828D02*
X0131300Y0129828D01*
X0132078Y0128856D01*
X0131300Y0126344D02*
X0131302Y0126405D01*
X0131308Y0126466D01*
X0131317Y0126526D01*
X0131331Y0126586D01*
X0131348Y0126644D01*
X0131368Y0126702D01*
X0131393Y0126758D01*
X0131420Y0126812D01*
X0131451Y0126865D01*
X0131486Y0126915D01*
X0131523Y0126964D01*
X0131563Y0127009D01*
X0131607Y0127053D01*
X0131652Y0127093D01*
X0131701Y0127130D01*
X0131751Y0127165D01*
X0131804Y0127196D01*
X0131858Y0127223D01*
X0131914Y0127248D01*
X0131972Y0127268D01*
X0132030Y0127285D01*
X0132090Y0127299D01*
X0132150Y0127308D01*
X0132211Y0127314D01*
X0132272Y0127316D01*
X0132333Y0127314D01*
X0132394Y0127308D01*
X0132454Y0127299D01*
X0132514Y0127285D01*
X0132572Y0127268D01*
X0132630Y0127248D01*
X0132686Y0127223D01*
X0132740Y0127196D01*
X0132793Y0127165D01*
X0132843Y0127130D01*
X0132892Y0127093D01*
X0132937Y0127053D01*
X0132981Y0127009D01*
X0133021Y0126964D01*
X0133058Y0126915D01*
X0133093Y0126865D01*
X0133124Y0126812D01*
X0133151Y0126758D01*
X0133176Y0126702D01*
X0133196Y0126644D01*
X0133213Y0126586D01*
X0133227Y0126526D01*
X0133236Y0126466D01*
X0133242Y0126405D01*
X0133244Y0126344D01*
X0133244Y0125371D01*
X0133244Y0126538D02*
X0134800Y0127316D01*
X0134800Y0125371D02*
X0131300Y0125371D01*
X0131300Y0126344D01*
X0157200Y0107172D02*
X0157200Y0106200D01*
X0160700Y0106200D01*
X0159144Y0106200D02*
X0159144Y0107172D01*
X0159144Y0107367D02*
X0160700Y0108144D01*
X0160700Y0109684D02*
X0160700Y0111629D01*
X0160700Y0109684D02*
X0158756Y0111337D01*
X0157200Y0110754D02*
X0157202Y0110690D01*
X0157207Y0110626D01*
X0157216Y0110562D01*
X0157229Y0110499D01*
X0157246Y0110437D01*
X0157265Y0110376D01*
X0157289Y0110316D01*
X0157315Y0110258D01*
X0157345Y0110201D01*
X0157379Y0110146D01*
X0157415Y0110093D01*
X0157454Y0110042D01*
X0157496Y0109994D01*
X0157541Y0109947D01*
X0157588Y0109904D01*
X0157638Y0109863D01*
X0157690Y0109826D01*
X0157744Y0109791D01*
X0157800Y0109759D01*
X0157858Y0109731D01*
X0157917Y0109706D01*
X0157978Y0109685D01*
X0158756Y0111337D02*
X0158714Y0111378D01*
X0158670Y0111417D01*
X0158623Y0111452D01*
X0158575Y0111485D01*
X0158524Y0111515D01*
X0158472Y0111541D01*
X0158418Y0111564D01*
X0158363Y0111584D01*
X0158307Y0111600D01*
X0158250Y0111613D01*
X0158192Y0111622D01*
X0158134Y0111627D01*
X0158075Y0111629D01*
X0158018Y0111627D01*
X0157961Y0111622D01*
X0157904Y0111612D01*
X0157849Y0111599D01*
X0157794Y0111583D01*
X0157740Y0111562D01*
X0157688Y0111539D01*
X0157638Y0111512D01*
X0157589Y0111482D01*
X0157542Y0111448D01*
X0157498Y0111412D01*
X0157456Y0111373D01*
X0157417Y0111331D01*
X0157381Y0111287D01*
X0157347Y0111240D01*
X0157317Y0111192D01*
X0157290Y0111141D01*
X0157267Y0111089D01*
X0157246Y0111035D01*
X0157230Y0110980D01*
X0157217Y0110925D01*
X0157207Y0110868D01*
X0157202Y0110811D01*
X0157200Y0110754D01*
X0157200Y0107172D02*
X0157202Y0107233D01*
X0157208Y0107294D01*
X0157217Y0107354D01*
X0157231Y0107414D01*
X0157248Y0107472D01*
X0157268Y0107530D01*
X0157293Y0107586D01*
X0157320Y0107640D01*
X0157351Y0107693D01*
X0157386Y0107743D01*
X0157423Y0107792D01*
X0157463Y0107837D01*
X0157507Y0107881D01*
X0157552Y0107921D01*
X0157601Y0107958D01*
X0157651Y0107993D01*
X0157704Y0108024D01*
X0157758Y0108051D01*
X0157814Y0108076D01*
X0157872Y0108096D01*
X0157930Y0108113D01*
X0157990Y0108127D01*
X0158050Y0108136D01*
X0158111Y0108142D01*
X0158172Y0108144D01*
X0158233Y0108142D01*
X0158294Y0108136D01*
X0158354Y0108127D01*
X0158414Y0108113D01*
X0158472Y0108096D01*
X0158530Y0108076D01*
X0158586Y0108051D01*
X0158640Y0108024D01*
X0158693Y0107993D01*
X0158743Y0107958D01*
X0158792Y0107921D01*
X0158837Y0107881D01*
X0158881Y0107837D01*
X0158921Y0107792D01*
X0158958Y0107743D01*
X0158993Y0107693D01*
X0159024Y0107640D01*
X0159051Y0107586D01*
X0159076Y0107530D01*
X0159096Y0107472D01*
X0159113Y0107414D01*
X0159127Y0107354D01*
X0159136Y0107294D01*
X0159142Y0107233D01*
X0159144Y0107172D01*
X0137306Y0084650D02*
X0137304Y0084717D01*
X0137298Y0084784D01*
X0137289Y0084850D01*
X0137275Y0084915D01*
X0137258Y0084980D01*
X0137237Y0085043D01*
X0137212Y0085105D01*
X0137184Y0085166D01*
X0137152Y0085225D01*
X0137117Y0085282D01*
X0137078Y0085337D01*
X0137037Y0085389D01*
X0136992Y0085439D01*
X0136945Y0085486D01*
X0136895Y0085531D01*
X0136843Y0085572D01*
X0136788Y0085611D01*
X0136731Y0085646D01*
X0136672Y0085678D01*
X0136611Y0085706D01*
X0136549Y0085731D01*
X0136486Y0085752D01*
X0136421Y0085769D01*
X0136356Y0085783D01*
X0136290Y0085792D01*
X0136223Y0085798D01*
X0136156Y0085800D01*
X0137305Y0084650D02*
X0137303Y0084583D01*
X0137298Y0084517D01*
X0137289Y0084451D01*
X0137276Y0084385D01*
X0137260Y0084321D01*
X0137241Y0084257D01*
X0137218Y0084194D01*
X0137192Y0084133D01*
X0137162Y0084073D01*
X0137129Y0084015D01*
X0137094Y0083959D01*
X0137055Y0083905D01*
X0137013Y0083853D01*
X0136969Y0083803D01*
X0136922Y0083756D01*
X0134750Y0081200D01*
X0137306Y0081200D01*
X0134751Y0084778D02*
X0134776Y0084848D01*
X0134804Y0084917D01*
X0134835Y0084984D01*
X0134870Y0085050D01*
X0134908Y0085113D01*
X0134950Y0085175D01*
X0134994Y0085235D01*
X0135041Y0085292D01*
X0135091Y0085347D01*
X0135144Y0085399D01*
X0135200Y0085449D01*
X0135258Y0085495D01*
X0135318Y0085539D01*
X0135380Y0085580D01*
X0135444Y0085617D01*
X0135510Y0085651D01*
X0135578Y0085682D01*
X0135647Y0085709D01*
X0135717Y0085733D01*
X0135788Y0085754D01*
X0135861Y0085770D01*
X0135934Y0085783D01*
X0136008Y0085793D01*
X0136082Y0085798D01*
X0136156Y0085800D01*
X0132467Y0083117D02*
X0131828Y0083500D01*
X0131189Y0083883D01*
X0130805Y0081967D02*
X0130880Y0081924D01*
X0130956Y0081885D01*
X0131034Y0081848D01*
X0131113Y0081816D01*
X0131194Y0081786D01*
X0131276Y0081760D01*
X0131359Y0081738D01*
X0131443Y0081719D01*
X0131527Y0081703D01*
X0131612Y0081692D01*
X0131698Y0081684D01*
X0131783Y0081679D01*
X0131869Y0081678D01*
X0131955Y0081681D01*
X0132041Y0081687D01*
X0132126Y0081697D01*
X0132211Y0081711D01*
X0131828Y0081200D02*
X0131828Y0085800D01*
X0131445Y0085289D02*
X0131392Y0085277D01*
X0131340Y0085262D01*
X0131289Y0085242D01*
X0131240Y0085220D01*
X0131192Y0085194D01*
X0131146Y0085164D01*
X0131103Y0085132D01*
X0131062Y0085096D01*
X0131023Y0085058D01*
X0130988Y0085017D01*
X0130955Y0084973D01*
X0130926Y0084928D01*
X0130900Y0084880D01*
X0130877Y0084830D01*
X0130858Y0084780D01*
X0130843Y0084728D01*
X0130831Y0084674D01*
X0130824Y0084621D01*
X0130820Y0084567D01*
X0130819Y0084512D01*
X0130823Y0084458D01*
X0130831Y0084404D01*
X0130842Y0084351D01*
X0130857Y0084299D01*
X0130876Y0084248D01*
X0130899Y0084199D01*
X0130924Y0084151D01*
X0130954Y0084105D01*
X0130986Y0084062D01*
X0131021Y0084020D01*
X0131060Y0083982D01*
X0131101Y0083946D01*
X0131144Y0083913D01*
X0131189Y0083884D01*
X0131444Y0085289D02*
X0131529Y0085303D01*
X0131614Y0085313D01*
X0131700Y0085319D01*
X0131786Y0085322D01*
X0131872Y0085321D01*
X0131957Y0085316D01*
X0132043Y0085308D01*
X0132128Y0085297D01*
X0132212Y0085281D01*
X0132296Y0085262D01*
X0132379Y0085240D01*
X0132461Y0085214D01*
X0132542Y0085184D01*
X0132621Y0085152D01*
X0132699Y0085115D01*
X0132775Y0085076D01*
X0132850Y0085033D01*
X0132467Y0083116D02*
X0132512Y0083087D01*
X0132555Y0083054D01*
X0132596Y0083018D01*
X0132635Y0082980D01*
X0132670Y0082938D01*
X0132702Y0082895D01*
X0132732Y0082849D01*
X0132757Y0082801D01*
X0132780Y0082752D01*
X0132799Y0082701D01*
X0132814Y0082649D01*
X0132825Y0082596D01*
X0132833Y0082542D01*
X0132837Y0082488D01*
X0132836Y0082433D01*
X0132832Y0082379D01*
X0132825Y0082326D01*
X0132813Y0082272D01*
X0132798Y0082220D01*
X0132779Y0082170D01*
X0132756Y0082120D01*
X0132730Y0082072D01*
X0132701Y0082027D01*
X0132668Y0081983D01*
X0132633Y0081942D01*
X0132594Y0081904D01*
X0132553Y0081868D01*
X0132510Y0081836D01*
X0132464Y0081806D01*
X0132416Y0081780D01*
X0132367Y0081758D01*
X0132316Y0081738D01*
X0132264Y0081723D01*
X0132211Y0081711D01*
X0128756Y0082478D02*
X0128756Y0085800D01*
X0126200Y0085800D02*
X0126200Y0082478D01*
X0126202Y0082408D01*
X0126208Y0082337D01*
X0126217Y0082268D01*
X0126231Y0082199D01*
X0126248Y0082130D01*
X0126269Y0082063D01*
X0126294Y0081997D01*
X0126322Y0081933D01*
X0126354Y0081870D01*
X0126389Y0081809D01*
X0126428Y0081750D01*
X0126469Y0081693D01*
X0126514Y0081639D01*
X0126562Y0081587D01*
X0126612Y0081538D01*
X0126666Y0081491D01*
X0126721Y0081448D01*
X0126779Y0081408D01*
X0126839Y0081371D01*
X0126901Y0081338D01*
X0126965Y0081308D01*
X0127030Y0081281D01*
X0127096Y0081258D01*
X0127164Y0081239D01*
X0127233Y0081224D01*
X0127302Y0081212D01*
X0127372Y0081204D01*
X0127443Y0081200D01*
X0127513Y0081200D01*
X0127584Y0081204D01*
X0127654Y0081212D01*
X0127723Y0081224D01*
X0127792Y0081239D01*
X0127860Y0081258D01*
X0127926Y0081281D01*
X0127991Y0081308D01*
X0128055Y0081338D01*
X0128117Y0081371D01*
X0128177Y0081408D01*
X0128235Y0081448D01*
X0128290Y0081491D01*
X0128344Y0081538D01*
X0128394Y0081587D01*
X0128442Y0081639D01*
X0128487Y0081693D01*
X0128528Y0081750D01*
X0128567Y0081809D01*
X0128602Y0081870D01*
X0128634Y0081933D01*
X0128662Y0081997D01*
X0128687Y0082063D01*
X0128708Y0082130D01*
X0128725Y0082199D01*
X0128739Y0082268D01*
X0128748Y0082337D01*
X0128754Y0082408D01*
X0128756Y0082478D01*
X0128267Y0208200D02*
X0125200Y0212800D01*
X0128267Y0212800D02*
X0125200Y0208200D01*
X0129956Y0208200D02*
X0132511Y0208200D01*
X0131233Y0208200D02*
X0131233Y0212800D01*
X0129956Y0211778D01*
D19*
X0126000Y0131750D03*
X0126000Y0110250D03*
X0166000Y0105250D03*
X0166000Y0126750D03*
M02*
